<?xml version="1.0" encoding="UTF-8" standalone="no"?>
<!DOCTYPE svg PUBLIC "-//W3C//DTD SVG 1.1//EN"
 "http://www.w3.org/Graphics/SVG/1.1/DTD/svg11.dtd">
<!-- Generated by graphviz version 14.1.0 (20251207.0913)
 -->
<!-- Title: model Pages: 1 -->
<svg width="1361pt" height="110pt"
 viewBox="0.00 0.00 1361.00 110.00" xmlns="http://www.w3.org/2000/svg" xmlns:xlink="http://www.w3.org/1999/xlink">
<g id="graph0" class="graph" transform="scale(0.287875 0.287875) rotate(0) translate(4 377.03)">
<title>model</title>
<polygon fill="white" stroke="none" points="-4,4 -4,-377.03 4723.75,-377.03 4723.75,4 -4,4"/>
<!-- 0 -->
<g id="node1" class="node">
<title>0</title>
<polygon fill="lightyellow" stroke="none" points="1465.5,-281.5 1300.75,-281.5 1300.75,-246 1465.5,-246 1465.5,-281.5"/>
<polygon fill="none" stroke="black" points="1300.75,-246 1300.75,-281.5 1370,-281.5 1370,-246 1300.75,-246"/>
<text xml:space="preserve" text-anchor="start" x="1305.75" y="-267" font-family="Linux libertine" font-size="10.00">input&#45;tensor</text>
<text xml:space="preserve" text-anchor="start" x="1317" y="-254.25" font-family="Linux libertine" font-size="10.00">depth:0</text>
<polygon fill="none" stroke="black" points="1370,-246 1370,-281.5 1465.5,-281.5 1465.5,-246 1370,-246"/>
<text xml:space="preserve" text-anchor="start" x="1375" y="-260.62" font-family="Linux libertine" font-size="10.00">(1, 16, 16, 16, 16)</text>
</g>
<!-- 14 -->
<g id="node15" class="node">
<title>14</title>
<polygon fill="#c1ffc1" stroke="none" points="1717,-286.5 1502.5,-286.5 1502.5,-241 1717,-241 1717,-286.5"/>
<polygon fill="none" stroke="black" points="1502.5,-241 1502.5,-286.5 1571,-286.5 1571,-241 1502.5,-241"/>
<text xml:space="preserve" text-anchor="start" x="1507.5" y="-267" font-family="Linux libertine" font-size="10.00">Convolution</text>
<text xml:space="preserve" text-anchor="start" x="1518.38" y="-254.25" font-family="Linux libertine" font-size="10.00">depth:1</text>
<polygon fill="none" stroke="black" points="1571,-263.75 1571,-286.5 1618.5,-286.5 1618.5,-263.75 1571,-263.75"/>
<text xml:space="preserve" text-anchor="start" x="1580.88" y="-272" font-family="Linux libertine" font-size="10.00">input:</text>
<polygon fill="none" stroke="black" points="1618.5,-263.75 1618.5,-286.5 1717,-286.5 1717,-263.75 1618.5,-263.75"/>
<text xml:space="preserve" text-anchor="start" x="1623.5" y="-272" font-family="Linux libertine" font-size="10.00">(1, 16, 16, 16, 16) </text>
<polygon fill="none" stroke="black" points="1571,-241 1571,-263.75 1618.5,-263.75 1618.5,-241 1571,-241"/>
<text xml:space="preserve" text-anchor="start" x="1576" y="-249.25" font-family="Linux libertine" font-size="10.00">output: </text>
<polygon fill="none" stroke="black" points="1618.5,-241 1618.5,-263.75 1717,-263.75 1717,-241 1618.5,-241"/>
<text xml:space="preserve" text-anchor="start" x="1623.5" y="-249.25" font-family="Linux libertine" font-size="10.00">(1, 64, 16, 16, 16) </text>
</g>
<!-- 0&#45;&gt;14 -->
<g id="edge1" class="edge">
<title>0&#45;&gt;14</title>
<path fill="none" stroke="black" d="M1465.22,-263.75C1473.79,-263.75 1482.62,-263.75 1491.5,-263.75"/>
<polygon fill="black" stroke="black" points="1491.23,-267.25 1501.23,-263.75 1491.23,-260.25 1491.23,-267.25"/>
</g>
<!-- 1 -->
<g id="node2" class="node">
<title>1</title>
<polygon fill="lightyellow" stroke="none" points="279.5,-250.5 183.75,-250.5 183.75,-215 279.5,-215 279.5,-250.5"/>
<polygon fill="none" stroke="black" points="183.75,-215 183.75,-250.5 253,-250.5 253,-215 183.75,-215"/>
<text xml:space="preserve" text-anchor="start" x="188.75" y="-236" font-family="Linux libertine" font-size="10.00">input&#45;tensor</text>
<text xml:space="preserve" text-anchor="start" x="200" y="-223.25" font-family="Linux libertine" font-size="10.00">depth:0</text>
<polygon fill="none" stroke="black" points="253,-215 253,-250.5 279.5,-250.5 279.5,-215 253,-215"/>
<text xml:space="preserve" text-anchor="start" x="258" y="-229.62" font-family="Linux libertine" font-size="10.00">(1,)</text>
</g>
<!-- 5 -->
<g id="node6" class="node">
<title>5</title>
<polygon fill="aliceblue" stroke="none" points="488.75,-255.5 333.5,-255.5 333.5,-210 488.75,-210 488.75,-255.5"/>
<polygon fill="none" stroke="black" points="333.5,-210 333.5,-255.5 402.75,-255.5 402.75,-210 333.5,-210"/>
<text xml:space="preserve" text-anchor="start" x="338.5" y="-236" font-family="Linux libertine" font-size="10.00">__getitem__</text>
<text xml:space="preserve" text-anchor="start" x="349.75" y="-223.25" font-family="Linux libertine" font-size="10.00">depth:1</text>
<polygon fill="none" stroke="black" points="402.75,-232.75 402.75,-255.5 450.25,-255.5 450.25,-232.75 402.75,-232.75"/>
<text xml:space="preserve" text-anchor="start" x="412.62" y="-241" font-family="Linux libertine" font-size="10.00">input:</text>
<polygon fill="none" stroke="black" points="450.25,-232.75 450.25,-255.5 488.75,-255.5 488.75,-232.75 450.25,-232.75"/>
<text xml:space="preserve" text-anchor="start" x="459.75" y="-241" font-family="Linux libertine" font-size="10.00">(1,) </text>
<polygon fill="none" stroke="black" points="402.75,-210 402.75,-232.75 450.25,-232.75 450.25,-210 402.75,-210"/>
<text xml:space="preserve" text-anchor="start" x="407.75" y="-218.25" font-family="Linux libertine" font-size="10.00">output: </text>
<polygon fill="none" stroke="black" points="450.25,-210 450.25,-232.75 488.75,-232.75 488.75,-210 450.25,-210"/>
<text xml:space="preserve" text-anchor="start" x="455.25" y="-218.25" font-family="Linux libertine" font-size="10.00">(1, 1) </text>
</g>
<!-- 1&#45;&gt;5 -->
<g id="edge2" class="edge">
<title>1&#45;&gt;5</title>
<path fill="none" stroke="black" d="M279.26,-232.75C292.52,-232.75 307.41,-232.75 322.27,-232.75"/>
<polygon fill="black" stroke="black" points="322.09,-236.25 332.09,-232.75 322.09,-229.25 322.09,-236.25"/>
</g>
<!-- 2 -->
<g id="node3" class="node">
<title>2</title>
<polygon fill="aliceblue" stroke="none" points="129.75,-191.5 0,-191.5 0,-146 129.75,-146 129.75,-191.5"/>
<polygon fill="none" stroke="black" points="0,-146 0,-191.5 46.75,-191.5 46.75,-146 0,-146"/>
<text xml:space="preserve" text-anchor="start" x="14" y="-172" font-family="Linux libertine" font-size="10.00">mul</text>
<text xml:space="preserve" text-anchor="start" x="5" y="-159.25" font-family="Linux libertine" font-size="10.00">depth:1</text>
<polygon fill="none" stroke="black" points="46.75,-168.75 46.75,-191.5 94.25,-191.5 94.25,-168.75 46.75,-168.75"/>
<text xml:space="preserve" text-anchor="start" x="56.62" y="-177" font-family="Linux libertine" font-size="10.00">input:</text>
<polygon fill="none" stroke="black" points="94.25,-168.75 94.25,-191.5 129.75,-191.5 129.75,-168.75 94.25,-168.75"/>
<text xml:space="preserve" text-anchor="start" x="99.25" y="-177" font-family="Linux libertine" font-size="10.00">(32,) </text>
<polygon fill="none" stroke="black" points="46.75,-146 46.75,-168.75 94.25,-168.75 94.25,-146 46.75,-146"/>
<text xml:space="preserve" text-anchor="start" x="51.75" y="-154.25" font-family="Linux libertine" font-size="10.00">output: </text>
<polygon fill="none" stroke="black" points="94.25,-146 94.25,-168.75 129.75,-168.75 129.75,-146 94.25,-146"/>
<text xml:space="preserve" text-anchor="start" x="99.25" y="-154.25" font-family="Linux libertine" font-size="10.00">(32,) </text>
</g>
<!-- 3 -->
<g id="node4" class="node">
<title>3</title>
<polygon fill="aliceblue" stroke="none" points="296.5,-191.5 166.75,-191.5 166.75,-146 296.5,-146 296.5,-191.5"/>
<polygon fill="none" stroke="black" points="166.75,-146 166.75,-191.5 213.5,-191.5 213.5,-146 166.75,-146"/>
<text xml:space="preserve" text-anchor="start" x="182.62" y="-172" font-family="Linux libertine" font-size="10.00">div</text>
<text xml:space="preserve" text-anchor="start" x="171.75" y="-159.25" font-family="Linux libertine" font-size="10.00">depth:1</text>
<polygon fill="none" stroke="black" points="213.5,-168.75 213.5,-191.5 261,-191.5 261,-168.75 213.5,-168.75"/>
<text xml:space="preserve" text-anchor="start" x="223.38" y="-177" font-family="Linux libertine" font-size="10.00">input:</text>
<polygon fill="none" stroke="black" points="261,-168.75 261,-191.5 296.5,-191.5 296.5,-168.75 261,-168.75"/>
<text xml:space="preserve" text-anchor="start" x="266" y="-177" font-family="Linux libertine" font-size="10.00">(32,) </text>
<polygon fill="none" stroke="black" points="213.5,-146 213.5,-168.75 261,-168.75 261,-146 213.5,-146"/>
<text xml:space="preserve" text-anchor="start" x="218.5" y="-154.25" font-family="Linux libertine" font-size="10.00">output: </text>
<polygon fill="none" stroke="black" points="261,-146 261,-168.75 296.5,-168.75 296.5,-146 261,-146"/>
<text xml:space="preserve" text-anchor="start" x="266" y="-154.25" font-family="Linux libertine" font-size="10.00">(32,) </text>
</g>
<!-- 2&#45;&gt;3 -->
<g id="edge3" class="edge">
<title>2&#45;&gt;3</title>
<path fill="none" stroke="black" d="M129.57,-168.75C138.07,-168.75 146.85,-168.75 155.52,-168.75"/>
<polygon fill="black" stroke="black" points="155.31,-172.25 165.31,-168.75 155.31,-165.25 155.31,-172.25"/>
</g>
<!-- 4 -->
<g id="node5" class="node">
<title>4</title>
<polygon fill="aliceblue" stroke="none" points="476,-191.5 346.25,-191.5 346.25,-146 476,-146 476,-191.5"/>
<polygon fill="none" stroke="black" points="346.25,-146 346.25,-191.5 393,-191.5 393,-146 346.25,-146"/>
<text xml:space="preserve" text-anchor="start" x="360.62" y="-172" font-family="Linux libertine" font-size="10.00">exp</text>
<text xml:space="preserve" text-anchor="start" x="351.25" y="-159.25" font-family="Linux libertine" font-size="10.00">depth:1</text>
<polygon fill="none" stroke="black" points="393,-168.75 393,-191.5 440.5,-191.5 440.5,-168.75 393,-168.75"/>
<text xml:space="preserve" text-anchor="start" x="402.88" y="-177" font-family="Linux libertine" font-size="10.00">input:</text>
<polygon fill="none" stroke="black" points="440.5,-168.75 440.5,-191.5 476,-191.5 476,-168.75 440.5,-168.75"/>
<text xml:space="preserve" text-anchor="start" x="445.5" y="-177" font-family="Linux libertine" font-size="10.00">(32,) </text>
<polygon fill="none" stroke="black" points="393,-146 393,-168.75 440.5,-168.75 440.5,-146 393,-146"/>
<text xml:space="preserve" text-anchor="start" x="398" y="-154.25" font-family="Linux libertine" font-size="10.00">output: </text>
<polygon fill="none" stroke="black" points="440.5,-146 440.5,-168.75 476,-168.75 476,-146 440.5,-146"/>
<text xml:space="preserve" text-anchor="start" x="445.5" y="-154.25" font-family="Linux libertine" font-size="10.00">(32,) </text>
</g>
<!-- 3&#45;&gt;4 -->
<g id="edge4" class="edge">
<title>3&#45;&gt;4</title>
<path fill="none" stroke="black" d="M296.46,-168.75C308.99,-168.75 322.24,-168.75 335.09,-168.75"/>
<polygon fill="black" stroke="black" points="334.75,-172.25 344.75,-168.75 334.75,-165.25 334.75,-172.25"/>
</g>
<!-- 7 -->
<g id="node8" class="node">
<title>7</title>
<polygon fill="aliceblue" stroke="none" points="687,-191.5 525.75,-191.5 525.75,-146 687,-146 687,-191.5"/>
<polygon fill="none" stroke="black" points="525.75,-146 525.75,-191.5 595,-191.5 595,-146 525.75,-146"/>
<text xml:space="preserve" text-anchor="start" x="530.75" y="-172" font-family="Linux libertine" font-size="10.00">__getitem__</text>
<text xml:space="preserve" text-anchor="start" x="542" y="-159.25" font-family="Linux libertine" font-size="10.00">depth:1</text>
<polygon fill="none" stroke="black" points="595,-168.75 595,-191.5 642.5,-191.5 642.5,-168.75 595,-168.75"/>
<text xml:space="preserve" text-anchor="start" x="604.88" y="-177" font-family="Linux libertine" font-size="10.00">input:</text>
<polygon fill="none" stroke="black" points="642.5,-168.75 642.5,-191.5 687,-191.5 687,-168.75 642.5,-168.75"/>
<text xml:space="preserve" text-anchor="start" x="652" y="-177" font-family="Linux libertine" font-size="10.00">(32,) </text>
<polygon fill="none" stroke="black" points="595,-146 595,-168.75 642.5,-168.75 642.5,-146 595,-146"/>
<text xml:space="preserve" text-anchor="start" x="600" y="-154.25" font-family="Linux libertine" font-size="10.00">output: </text>
<polygon fill="none" stroke="black" points="642.5,-146 642.5,-168.75 687,-168.75 687,-146 642.5,-146"/>
<text xml:space="preserve" text-anchor="start" x="647.5" y="-154.25" font-family="Linux libertine" font-size="10.00">(1, 32) </text>
</g>
<!-- 4&#45;&gt;7 -->
<g id="edge5" class="edge">
<title>4&#45;&gt;7</title>
<path fill="none" stroke="black" d="M475.94,-168.75C488.27,-168.75 501.41,-168.75 514.41,-168.75"/>
<polygon fill="black" stroke="black" points="514.26,-172.25 524.26,-168.75 514.26,-165.25 514.26,-172.25"/>
</g>
<!-- 6 -->
<g id="node7" class="node">
<title>6</title>
<polygon fill="aliceblue" stroke="none" points="672.75,-255.5 540,-255.5 540,-210 672.75,-210 672.75,-255.5"/>
<polygon fill="none" stroke="black" points="540,-210 540,-255.5 586.75,-255.5 586.75,-210 540,-210"/>
<text xml:space="preserve" text-anchor="start" x="552.5" y="-236" font-family="Linux libertine" font-size="10.00">float</text>
<text xml:space="preserve" text-anchor="start" x="545" y="-223.25" font-family="Linux libertine" font-size="10.00">depth:1</text>
<polygon fill="none" stroke="black" points="586.75,-232.75 586.75,-255.5 634.25,-255.5 634.25,-232.75 586.75,-232.75"/>
<text xml:space="preserve" text-anchor="start" x="596.62" y="-241" font-family="Linux libertine" font-size="10.00">input:</text>
<polygon fill="none" stroke="black" points="634.25,-232.75 634.25,-255.5 672.75,-255.5 672.75,-232.75 634.25,-232.75"/>
<text xml:space="preserve" text-anchor="start" x="639.25" y="-241" font-family="Linux libertine" font-size="10.00">(1, 1) </text>
<polygon fill="none" stroke="black" points="586.75,-210 586.75,-232.75 634.25,-232.75 634.25,-210 586.75,-210"/>
<text xml:space="preserve" text-anchor="start" x="591.75" y="-218.25" font-family="Linux libertine" font-size="10.00">output: </text>
<polygon fill="none" stroke="black" points="634.25,-210 634.25,-232.75 672.75,-232.75 672.75,-210 634.25,-210"/>
<text xml:space="preserve" text-anchor="start" x="639.25" y="-218.25" font-family="Linux libertine" font-size="10.00">(1, 1) </text>
</g>
<!-- 5&#45;&gt;6 -->
<g id="edge6" class="edge">
<title>5&#45;&gt;6</title>
<path fill="none" stroke="black" d="M488.5,-232.75C501.72,-232.75 515.47,-232.75 528.7,-232.75"/>
<polygon fill="black" stroke="black" points="528.65,-236.25 538.65,-232.75 528.65,-229.25 528.65,-236.25"/>
</g>
<!-- 8 -->
<g id="node9" class="node">
<title>8</title>
<polygon fill="aliceblue" stroke="none" points="894.25,-222.5 724,-222.5 724,-177 894.25,-177 894.25,-222.5"/>
<polygon fill="none" stroke="black" points="724,-177 724,-222.5 770.75,-222.5 770.75,-177 724,-177"/>
<text xml:space="preserve" text-anchor="start" x="738" y="-203" font-family="Linux libertine" font-size="10.00">mul</text>
<text xml:space="preserve" text-anchor="start" x="729" y="-190.25" font-family="Linux libertine" font-size="10.00">depth:1</text>
<polygon fill="none" stroke="black" points="770.75,-199.75 770.75,-222.5 818.25,-222.5 818.25,-199.75 770.75,-199.75"/>
<text xml:space="preserve" text-anchor="start" x="780.62" y="-208" font-family="Linux libertine" font-size="10.00">input:</text>
<polygon fill="none" stroke="black" points="818.25,-199.75 818.25,-222.5 894.25,-222.5 894.25,-199.75 818.25,-199.75"/>
<text xml:space="preserve" text-anchor="start" x="823.25" y="-208" font-family="Linux libertine" font-size="10.00">(1, 1), (1, 32) </text>
<polygon fill="none" stroke="black" points="770.75,-177 770.75,-199.75 818.25,-199.75 818.25,-177 770.75,-177"/>
<text xml:space="preserve" text-anchor="start" x="775.75" y="-185.25" font-family="Linux libertine" font-size="10.00">output: </text>
<polygon fill="none" stroke="black" points="818.25,-177 818.25,-199.75 894.25,-199.75 894.25,-177 818.25,-177"/>
<text xml:space="preserve" text-anchor="start" x="839" y="-185.25" font-family="Linux libertine" font-size="10.00">(1, 32) </text>
</g>
<!-- 6&#45;&gt;8 -->
<g id="edge7" class="edge">
<title>6&#45;&gt;8</title>
<path fill="none" stroke="black" d="M672.55,-222.04C685.56,-219.9 699.47,-217.61 713.25,-215.35"/>
<polygon fill="black" stroke="black" points="713.45,-218.86 722.75,-213.78 712.31,-211.95 713.45,-218.86"/>
</g>
<!-- 7&#45;&gt;8 -->
<g id="edge8" class="edge">
<title>7&#45;&gt;8</title>
<path fill="none" stroke="black" d="M686.72,-181C695.35,-182.33 704.2,-183.7 712.99,-185.06"/>
<polygon fill="black" stroke="black" points="712.17,-188.47 722.58,-186.54 713.23,-181.56 712.17,-188.47"/>
</g>
<!-- 9 -->
<g id="node10" class="node">
<title>9</title>
<polygon fill="aliceblue" stroke="none" points="1070,-255.5 931.25,-255.5 931.25,-210 1070,-210 1070,-255.5"/>
<polygon fill="none" stroke="black" points="931.25,-210 931.25,-255.5 978,-255.5 978,-210 931.25,-210"/>
<text xml:space="preserve" text-anchor="start" x="946.38" y="-236" font-family="Linux libertine" font-size="10.00">cos</text>
<text xml:space="preserve" text-anchor="start" x="936.25" y="-223.25" font-family="Linux libertine" font-size="10.00">depth:1</text>
<polygon fill="none" stroke="black" points="978,-232.75 978,-255.5 1025.5,-255.5 1025.5,-232.75 978,-232.75"/>
<text xml:space="preserve" text-anchor="start" x="987.88" y="-241" font-family="Linux libertine" font-size="10.00">input:</text>
<polygon fill="none" stroke="black" points="1025.5,-232.75 1025.5,-255.5 1070,-255.5 1070,-232.75 1025.5,-232.75"/>
<text xml:space="preserve" text-anchor="start" x="1030.5" y="-241" font-family="Linux libertine" font-size="10.00">(1, 32) </text>
<polygon fill="none" stroke="black" points="978,-210 978,-232.75 1025.5,-232.75 1025.5,-210 978,-210"/>
<text xml:space="preserve" text-anchor="start" x="983" y="-218.25" font-family="Linux libertine" font-size="10.00">output: </text>
<polygon fill="none" stroke="black" points="1025.5,-210 1025.5,-232.75 1070,-232.75 1070,-210 1025.5,-210"/>
<text xml:space="preserve" text-anchor="start" x="1030.5" y="-218.25" font-family="Linux libertine" font-size="10.00">(1, 32) </text>
</g>
<!-- 8&#45;&gt;9 -->
<g id="edge9" class="edge">
<title>8&#45;&gt;9</title>
<path fill="none" stroke="black" d="M894.07,-214.37C902.74,-215.88 911.54,-217.41 920.16,-218.91"/>
<polygon fill="black" stroke="black" points="919.43,-222.34 929.88,-220.6 920.63,-215.44 919.43,-222.34"/>
</g>
<!-- 10 -->
<g id="node11" class="node">
<title>10</title>
<polygon fill="aliceblue" stroke="none" points="1070,-191.5 931.25,-191.5 931.25,-146 1070,-146 1070,-191.5"/>
<polygon fill="none" stroke="black" points="931.25,-146 931.25,-191.5 978,-191.5 978,-146 931.25,-146"/>
<text xml:space="preserve" text-anchor="start" x="947.5" y="-172" font-family="Linux libertine" font-size="10.00">sin</text>
<text xml:space="preserve" text-anchor="start" x="936.25" y="-159.25" font-family="Linux libertine" font-size="10.00">depth:1</text>
<polygon fill="none" stroke="black" points="978,-168.75 978,-191.5 1025.5,-191.5 1025.5,-168.75 978,-168.75"/>
<text xml:space="preserve" text-anchor="start" x="987.88" y="-177" font-family="Linux libertine" font-size="10.00">input:</text>
<polygon fill="none" stroke="black" points="1025.5,-168.75 1025.5,-191.5 1070,-191.5 1070,-168.75 1025.5,-168.75"/>
<text xml:space="preserve" text-anchor="start" x="1030.5" y="-177" font-family="Linux libertine" font-size="10.00">(1, 32) </text>
<polygon fill="none" stroke="black" points="978,-146 978,-168.75 1025.5,-168.75 1025.5,-146 978,-146"/>
<text xml:space="preserve" text-anchor="start" x="983" y="-154.25" font-family="Linux libertine" font-size="10.00">output: </text>
<polygon fill="none" stroke="black" points="1025.5,-146 1025.5,-168.75 1070,-168.75 1070,-146 1025.5,-146"/>
<text xml:space="preserve" text-anchor="start" x="1030.5" y="-154.25" font-family="Linux libertine" font-size="10.00">(1, 32) </text>
</g>
<!-- 8&#45;&gt;10 -->
<g id="edge10" class="edge">
<title>8&#45;&gt;10</title>
<path fill="none" stroke="black" d="M894.07,-186.02C902.74,-184.6 911.54,-183.16 920.16,-181.75"/>
<polygon fill="black" stroke="black" points="920.57,-185.23 929.88,-180.16 919.44,-178.32 920.57,-185.23"/>
</g>
<!-- 11 -->
<g id="node12" class="node">
<title>11</title>
<polygon fill="aliceblue" stroke="none" points="1263.75,-222.5 1107,-222.5 1107,-177 1263.75,-177 1263.75,-222.5"/>
<polygon fill="none" stroke="black" points="1107,-177 1107,-222.5 1153.75,-222.5 1153.75,-177 1107,-177"/>
<text xml:space="preserve" text-anchor="start" x="1122.88" y="-203" font-family="Linux libertine" font-size="10.00">cat</text>
<text xml:space="preserve" text-anchor="start" x="1112" y="-190.25" font-family="Linux libertine" font-size="10.00">depth:1</text>
<polygon fill="none" stroke="black" points="1153.75,-199.75 1153.75,-222.5 1201.25,-222.5 1201.25,-199.75 1153.75,-199.75"/>
<text xml:space="preserve" text-anchor="start" x="1163.62" y="-208" font-family="Linux libertine" font-size="10.00">input:</text>
<polygon fill="none" stroke="black" points="1201.25,-199.75 1201.25,-222.5 1263.75,-222.5 1263.75,-199.75 1201.25,-199.75"/>
<text xml:space="preserve" text-anchor="start" x="1206.25" y="-208" font-family="Linux libertine" font-size="10.00">2 x (1, 32) </text>
<polygon fill="none" stroke="black" points="1153.75,-177 1153.75,-199.75 1201.25,-199.75 1201.25,-177 1153.75,-177"/>
<text xml:space="preserve" text-anchor="start" x="1158.75" y="-185.25" font-family="Linux libertine" font-size="10.00">output: </text>
<polygon fill="none" stroke="black" points="1201.25,-177 1201.25,-199.75 1263.75,-199.75 1263.75,-177 1201.25,-177"/>
<text xml:space="preserve" text-anchor="start" x="1215.25" y="-185.25" font-family="Linux libertine" font-size="10.00">(1, 64) </text>
</g>
<!-- 9&#45;&gt;11 -->
<g id="edge11" class="edge">
<title>9&#45;&gt;11</title>
<path fill="none" stroke="black" d="M1069.93,-220.42C1078.49,-218.87 1087.33,-217.27 1096.13,-215.68"/>
<polygon fill="black" stroke="black" points="1096.53,-219.17 1105.75,-213.95 1095.29,-212.28 1096.53,-219.17"/>
</g>
<!-- 10&#45;&gt;11 -->
<g id="edge12" class="edge">
<title>10&#45;&gt;11</title>
<path fill="none" stroke="black" d="M1069.93,-180.34C1078.49,-181.79 1087.33,-183.29 1096.13,-184.78"/>
<polygon fill="black" stroke="black" points="1095.3,-188.19 1105.75,-186.41 1096.47,-181.29 1095.3,-188.19"/>
</g>
<!-- 12 -->
<g id="node13" class="node">
<title>12</title>
<polygon fill="aliceblue" stroke="none" points="1452.5,-222.5 1313.75,-222.5 1313.75,-177 1452.5,-177 1452.5,-222.5"/>
<polygon fill="none" stroke="black" points="1313.75,-177 1313.75,-222.5 1360.5,-222.5 1360.5,-177 1313.75,-177"/>
<text xml:space="preserve" text-anchor="start" x="1332.25" y="-203" font-family="Linux libertine" font-size="10.00">to</text>
<text xml:space="preserve" text-anchor="start" x="1318.75" y="-190.25" font-family="Linux libertine" font-size="10.00">depth:1</text>
<polygon fill="none" stroke="black" points="1360.5,-199.75 1360.5,-222.5 1408,-222.5 1408,-199.75 1360.5,-199.75"/>
<text xml:space="preserve" text-anchor="start" x="1370.38" y="-208" font-family="Linux libertine" font-size="10.00">input:</text>
<polygon fill="none" stroke="black" points="1408,-199.75 1408,-222.5 1452.5,-222.5 1452.5,-199.75 1408,-199.75"/>
<text xml:space="preserve" text-anchor="start" x="1413" y="-208" font-family="Linux libertine" font-size="10.00">(1, 64) </text>
<polygon fill="none" stroke="black" points="1360.5,-177 1360.5,-199.75 1408,-199.75 1408,-177 1360.5,-177"/>
<text xml:space="preserve" text-anchor="start" x="1365.5" y="-185.25" font-family="Linux libertine" font-size="10.00">output: </text>
<polygon fill="none" stroke="black" points="1408,-177 1408,-199.75 1452.5,-199.75 1452.5,-177 1408,-177"/>
<text xml:space="preserve" text-anchor="start" x="1413" y="-185.25" font-family="Linux libertine" font-size="10.00">(1, 64) </text>
</g>
<!-- 11&#45;&gt;12 -->
<g id="edge13" class="edge">
<title>11&#45;&gt;12</title>
<path fill="none" stroke="black" d="M1263.74,-199.75C1276.55,-199.75 1289.85,-199.75 1302.72,-199.75"/>
<polygon fill="black" stroke="black" points="1302.37,-203.25 1312.37,-199.75 1302.37,-196.25 1302.37,-203.25"/>
</g>
<!-- 13 -->
<g id="node14" class="node">
<title>13</title>
<polygon fill="#c1ffc1" stroke="none" points="1689.62,-222.5 1529.88,-222.5 1529.88,-177 1689.62,-177 1689.62,-222.5"/>
<polygon fill="none" stroke="black" points="1529.88,-177 1529.88,-222.5 1591.62,-222.5 1591.62,-177 1529.88,-177"/>
<text xml:space="preserve" text-anchor="start" x="1534.88" y="-203" font-family="Linux libertine" font-size="10.00">Sequential</text>
<text xml:space="preserve" text-anchor="start" x="1542.38" y="-190.25" font-family="Linux libertine" font-size="10.00">depth:1</text>
<polygon fill="none" stroke="black" points="1591.62,-199.75 1591.62,-222.5 1639.12,-222.5 1639.12,-199.75 1591.62,-199.75"/>
<text xml:space="preserve" text-anchor="start" x="1601.5" y="-208" font-family="Linux libertine" font-size="10.00">input:</text>
<polygon fill="none" stroke="black" points="1639.12,-199.75 1639.12,-222.5 1689.62,-222.5 1689.62,-199.75 1639.12,-199.75"/>
<text xml:space="preserve" text-anchor="start" x="1647.12" y="-208" font-family="Linux libertine" font-size="10.00">(1, 64) </text>
<polygon fill="none" stroke="black" points="1591.62,-177 1591.62,-199.75 1639.12,-199.75 1639.12,-177 1591.62,-177"/>
<text xml:space="preserve" text-anchor="start" x="1596.62" y="-185.25" font-family="Linux libertine" font-size="10.00">output: </text>
<polygon fill="none" stroke="black" points="1639.12,-177 1639.12,-199.75 1689.62,-199.75 1689.62,-177 1639.12,-177"/>
<text xml:space="preserve" text-anchor="start" x="1644.12" y="-185.25" font-family="Linux libertine" font-size="10.00">(1, 256) </text>
</g>
<!-- 12&#45;&gt;13 -->
<g id="edge14" class="edge">
<title>12&#45;&gt;13</title>
<path fill="none" stroke="black" d="M1452.43,-199.75C1473.32,-199.75 1496.61,-199.75 1518.71,-199.75"/>
<polygon fill="black" stroke="black" points="1518.62,-203.25 1528.62,-199.75 1518.62,-196.25 1518.62,-203.25"/>
</g>
<!-- 15 -->
<g id="node16" class="node">
<title>15</title>
<polygon fill="#c1ffc1" stroke="none" points="2074.25,-283.5 1754,-283.5 1754,-238 2074.25,-238 2074.25,-283.5"/>
<polygon fill="none" stroke="black" points="1754,-238 1754,-283.5 1818.75,-283.5 1818.75,-238 1754,-238"/>
<text xml:space="preserve" text-anchor="start" x="1759" y="-264" font-family="Linux libertine" font-size="10.00">DownBlock</text>
<text xml:space="preserve" text-anchor="start" x="1768" y="-251.25" font-family="Linux libertine" font-size="10.00">depth:1</text>
<polygon fill="none" stroke="black" points="1818.75,-260.75 1818.75,-283.5 1866.25,-283.5 1866.25,-260.75 1818.75,-260.75"/>
<text xml:space="preserve" text-anchor="start" x="1828.62" y="-269" font-family="Linux libertine" font-size="10.00">input:</text>
<polygon fill="none" stroke="black" points="1866.25,-260.75 1866.25,-283.5 2074.25,-283.5 2074.25,-260.75 1866.25,-260.75"/>
<text xml:space="preserve" text-anchor="start" x="1904.25" y="-269" font-family="Linux libertine" font-size="10.00">(1, 64, 16, 16, 16), (1, 256) </text>
<polygon fill="none" stroke="black" points="1818.75,-238 1818.75,-260.75 1866.25,-260.75 1866.25,-238 1818.75,-238"/>
<text xml:space="preserve" text-anchor="start" x="1823.75" y="-246.25" font-family="Linux libertine" font-size="10.00">output: </text>
<polygon fill="none" stroke="black" points="1866.25,-238 1866.25,-260.75 2074.25,-260.75 2074.25,-238 1866.25,-238"/>
<text xml:space="preserve" text-anchor="start" x="1871.25" y="-246.25" font-family="Linux libertine" font-size="10.00">2 x (1, 64, 8, 8, 8), 2 x (1, 64, 16, 16, 16) </text>
</g>
<!-- 13&#45;&gt;15 -->
<g id="edge15" class="edge">
<title>13&#45;&gt;15</title>
<path fill="none" stroke="black" d="M1689.41,-215.62C1719.96,-221.78 1755.69,-228.99 1789.52,-235.81"/>
<polygon fill="black" stroke="black" points="1788.45,-239.17 1798.94,-237.71 1789.83,-232.31 1788.45,-239.17"/>
</g>
<!-- 16 -->
<g id="node17" class="node">
<title>16</title>
<polygon fill="#c1ffc1" stroke="none" points="2445.75,-175.5 2111.25,-175.5 2111.25,-130 2445.75,-130 2445.75,-175.5"/>
<polygon fill="none" stroke="black" points="2111.25,-130 2111.25,-175.5 2196.25,-175.5 2196.25,-130 2111.25,-130"/>
<text xml:space="preserve" text-anchor="start" x="2116.25" y="-156" font-family="Linux libertine" font-size="10.00">AttnDownBlock</text>
<text xml:space="preserve" text-anchor="start" x="2135.38" y="-143.25" font-family="Linux libertine" font-size="10.00">depth:1</text>
<polygon fill="none" stroke="black" points="2196.25,-152.75 2196.25,-175.5 2243.75,-175.5 2243.75,-152.75 2196.25,-152.75"/>
<text xml:space="preserve" text-anchor="start" x="2206.12" y="-161" font-family="Linux libertine" font-size="10.00">input:</text>
<polygon fill="none" stroke="black" points="2243.75,-152.75 2243.75,-175.5 2445.75,-175.5 2445.75,-152.75 2243.75,-152.75"/>
<text xml:space="preserve" text-anchor="start" x="2287.75" y="-161" font-family="Linux libertine" font-size="10.00">(1, 64, 8, 8, 8), (1, 256) </text>
<polygon fill="none" stroke="black" points="2196.25,-130 2196.25,-152.75 2243.75,-152.75 2243.75,-130 2196.25,-130"/>
<text xml:space="preserve" text-anchor="start" x="2201.25" y="-138.25" font-family="Linux libertine" font-size="10.00">output: </text>
<polygon fill="none" stroke="black" points="2243.75,-130 2243.75,-152.75 2445.75,-152.75 2445.75,-130 2243.75,-130"/>
<text xml:space="preserve" text-anchor="start" x="2248.75" y="-138.25" font-family="Linux libertine" font-size="10.00">2 x (1, 128, 4, 4, 4), 3 x (1, 128, 8, 8, 8) </text>
</g>
<!-- 13&#45;&gt;16 -->
<g id="edge16" class="edge">
<title>13&#45;&gt;16</title>
<path fill="none" stroke="black" d="M1689.52,-194.2C1789.99,-187.12 1966.7,-174.66 2100.24,-165.25"/>
<polygon fill="black" stroke="black" points="2100.16,-168.76 2109.88,-164.57 2099.66,-161.78 2100.16,-168.76"/>
</g>
<!-- 17 -->
<g id="node18" class="node">
<title>17</title>
<polygon fill="#c1ffc1" stroke="none" points="2745.25,-99.5 2482.75,-99.5 2482.75,-54 2745.25,-54 2745.25,-99.5"/>
<polygon fill="none" stroke="black" points="2482.75,-54 2482.75,-99.5 2567.75,-99.5 2567.75,-54 2482.75,-54"/>
<text xml:space="preserve" text-anchor="start" x="2487.75" y="-80" font-family="Linux libertine" font-size="10.00">AttnDownBlock</text>
<text xml:space="preserve" text-anchor="start" x="2506.88" y="-67.25" font-family="Linux libertine" font-size="10.00">depth:1</text>
<polygon fill="none" stroke="black" points="2567.75,-76.75 2567.75,-99.5 2615.25,-99.5 2615.25,-76.75 2567.75,-76.75"/>
<text xml:space="preserve" text-anchor="start" x="2577.62" y="-85" font-family="Linux libertine" font-size="10.00">input:</text>
<polygon fill="none" stroke="black" points="2615.25,-76.75 2615.25,-99.5 2745.25,-99.5 2745.25,-76.75 2615.25,-76.75"/>
<text xml:space="preserve" text-anchor="start" x="2620.25" y="-85" font-family="Linux libertine" font-size="10.00">(1, 128, 4, 4, 4), (1, 256) </text>
<polygon fill="none" stroke="black" points="2567.75,-54 2567.75,-76.75 2615.25,-76.75 2615.25,-54 2567.75,-54"/>
<text xml:space="preserve" text-anchor="start" x="2572.75" y="-62.25" font-family="Linux libertine" font-size="10.00">output: </text>
<polygon fill="none" stroke="black" points="2615.25,-54 2615.25,-76.75 2745.25,-76.75 2745.25,-54 2615.25,-54"/>
<text xml:space="preserve" text-anchor="start" x="2633" y="-62.25" font-family="Linux libertine" font-size="10.00">4 x (1, 256, 4, 4, 4) </text>
</g>
<!-- 13&#45;&gt;17 -->
<g id="edge17" class="edge">
<title>13&#45;&gt;17</title>
<path fill="none" stroke="black" d="M1689.5,-177.36C1710.35,-172 1732.92,-166.69 1754,-162.75 2004.17,-115.96 2300.41,-93.4 2471.53,-83.52"/>
<polygon fill="black" stroke="black" points="2471.57,-87.02 2481.36,-82.96 2471.17,-80.03 2471.57,-87.02"/>
</g>
<!-- 18 -->
<g id="node19" class="node">
<title>18</title>
<polygon fill="#c1ffc1" stroke="none" points="3035,-45.5 2782.25,-45.5 2782.25,0 3035,0 3035,-45.5"/>
<polygon fill="none" stroke="black" points="2782.25,0 2782.25,-45.5 2857.5,-45.5 2857.5,0 2782.25,0"/>
<text xml:space="preserve" text-anchor="start" x="2787.25" y="-26" font-family="Linux libertine" font-size="10.00">AttnMidBlock</text>
<text xml:space="preserve" text-anchor="start" x="2801.5" y="-13.25" font-family="Linux libertine" font-size="10.00">depth:1</text>
<polygon fill="none" stroke="black" points="2857.5,-22.75 2857.5,-45.5 2905,-45.5 2905,-22.75 2857.5,-22.75"/>
<text xml:space="preserve" text-anchor="start" x="2867.38" y="-31" font-family="Linux libertine" font-size="10.00">input:</text>
<polygon fill="none" stroke="black" points="2905,-22.75 2905,-45.5 3035,-45.5 3035,-22.75 2905,-22.75"/>
<text xml:space="preserve" text-anchor="start" x="2910" y="-31" font-family="Linux libertine" font-size="10.00">(1, 256, 4, 4, 4), (1, 256) </text>
<polygon fill="none" stroke="black" points="2857.5,0 2857.5,-22.75 2905,-22.75 2905,0 2857.5,0"/>
<text xml:space="preserve" text-anchor="start" x="2862.5" y="-8.25" font-family="Linux libertine" font-size="10.00">output: </text>
<polygon fill="none" stroke="black" points="2905,0 2905,-22.75 3035,-22.75 3035,0 2905,0"/>
<text xml:space="preserve" text-anchor="start" x="2931.75" y="-8.25" font-family="Linux libertine" font-size="10.00">(1, 256, 4, 4, 4) </text>
</g>
<!-- 13&#45;&gt;18 -->
<g id="edge18" class="edge">
<title>13&#45;&gt;18</title>
<path fill="none" stroke="black" d="M1631.81,-177C1677.9,-129.84 1793.2,-25.75 1913.12,-25.75 1913.12,-25.75 1913.12,-25.75 2615,-25.75 2665.9,-25.75 2721.79,-25.29 2770.96,-24.73"/>
<polygon fill="black" stroke="black" points="2770.85,-28.23 2780.8,-24.62 2770.76,-21.23 2770.85,-28.23"/>
</g>
<!-- 19 -->
<g id="node20" class="node">
<title>19</title>
<polygon fill="#c1ffc1" stroke="none" points="3417.75,-140.5 3072,-140.5 3072,-95 3417.75,-95 3417.75,-140.5"/>
<polygon fill="none" stroke="black" points="3072,-95 3072,-140.5 3142.75,-140.5 3142.75,-95 3072,-95"/>
<text xml:space="preserve" text-anchor="start" x="3077" y="-121" font-family="Linux libertine" font-size="10.00">AttnUpBlock</text>
<text xml:space="preserve" text-anchor="start" x="3089" y="-108.25" font-family="Linux libertine" font-size="10.00">depth:1</text>
<polygon fill="none" stroke="black" points="3142.75,-117.75 3142.75,-140.5 3190.25,-140.5 3190.25,-117.75 3142.75,-117.75"/>
<text xml:space="preserve" text-anchor="start" x="3152.62" y="-126" font-family="Linux libertine" font-size="10.00">input:</text>
<polygon fill="none" stroke="black" points="3190.25,-117.75 3190.25,-140.5 3417.75,-140.5 3417.75,-117.75 3190.25,-117.75"/>
<text xml:space="preserve" text-anchor="start" x="3195.25" y="-126" font-family="Linux libertine" font-size="10.00">4 x (1, 256, 4, 4, 4), (1, 128, 4, 4, 4), (1, 256) </text>
<polygon fill="none" stroke="black" points="3142.75,-95 3142.75,-117.75 3190.25,-117.75 3190.25,-95 3142.75,-95"/>
<text xml:space="preserve" text-anchor="start" x="3147.75" y="-103.25" font-family="Linux libertine" font-size="10.00">output: </text>
<polygon fill="none" stroke="black" points="3190.25,-95 3190.25,-117.75 3417.75,-117.75 3417.75,-95 3190.25,-95"/>
<text xml:space="preserve" text-anchor="start" x="3265.75" y="-103.25" font-family="Linux libertine" font-size="10.00">(1, 256, 8, 8, 8) </text>
</g>
<!-- 13&#45;&gt;19 -->
<g id="edge19" class="edge">
<title>13&#45;&gt;19</title>
<path fill="none" stroke="black" d="M1689.36,-203.77C1750.37,-206.55 1837.1,-209.75 1913.12,-209.75 1913.12,-209.75 1913.12,-209.75 2909.62,-209.75 3008.26,-209.75 3117.58,-172.05 3183.49,-144.92"/>
<polygon fill="black" stroke="black" points="3184.81,-148.16 3192.69,-141.07 3182.11,-141.7 3184.81,-148.16"/>
</g>
<!-- 20 -->
<g id="node21" class="node">
<title>20</title>
<polygon fill="#c1ffc1" stroke="none" points="3874,-265.5 3454.75,-265.5 3454.75,-220 3874,-220 3874,-265.5"/>
<polygon fill="none" stroke="black" points="3454.75,-220 3454.75,-265.5 3525.5,-265.5 3525.5,-220 3454.75,-220"/>
<text xml:space="preserve" text-anchor="start" x="3459.75" y="-246" font-family="Linux libertine" font-size="10.00">AttnUpBlock</text>
<text xml:space="preserve" text-anchor="start" x="3471.75" y="-233.25" font-family="Linux libertine" font-size="10.00">depth:1</text>
<polygon fill="none" stroke="black" points="3525.5,-242.75 3525.5,-265.5 3573,-265.5 3573,-242.75 3525.5,-242.75"/>
<text xml:space="preserve" text-anchor="start" x="3535.38" y="-251" font-family="Linux libertine" font-size="10.00">input:</text>
<polygon fill="none" stroke="black" points="3573,-242.75 3573,-265.5 3874,-265.5 3874,-242.75 3573,-242.75"/>
<text xml:space="preserve" text-anchor="start" x="3578" y="-251" font-family="Linux libertine" font-size="10.00">(1, 256, 8, 8, 8), (1, 64, 8, 8, 8), 3 x (1, 128, 8, 8, 8), (1, 256) </text>
<polygon fill="none" stroke="black" points="3525.5,-220 3525.5,-242.75 3573,-242.75 3573,-220 3525.5,-220"/>
<text xml:space="preserve" text-anchor="start" x="3530.5" y="-228.25" font-family="Linux libertine" font-size="10.00">output: </text>
<polygon fill="none" stroke="black" points="3573,-220 3573,-242.75 3874,-242.75 3874,-220 3573,-220"/>
<text xml:space="preserve" text-anchor="start" x="3676.25" y="-228.25" font-family="Linux libertine" font-size="10.00">(1, 128, 16, 16, 16) </text>
</g>
<!-- 13&#45;&gt;20 -->
<g id="edge20" class="edge">
<title>13&#45;&gt;20</title>
<path fill="none" stroke="black" d="M1689.45,-216.18C1699.29,-220.27 1708.78,-225.38 1717,-231.75 1742.07,-251.17 1728.6,-273.77 1754,-292.75 1812.59,-336.54 1839.98,-334.75 1913.12,-334.75 1913.12,-334.75 1913.12,-334.75 3245.88,-334.75 3368.76,-334.75 3507.33,-296.27 3589.89,-269.08"/>
<polygon fill="black" stroke="black" points="3590.85,-272.45 3599.23,-265.97 3588.64,-265.81 3590.85,-272.45"/>
</g>
<!-- 21 -->
<g id="node22" class="node">
<title>21</title>
<polygon fill="#c1ffc1" stroke="none" points="4266.5,-316.5 3911,-316.5 3911,-271 4266.5,-271 4266.5,-316.5"/>
<polygon fill="none" stroke="black" points="3911,-271 3911,-316.5 3961.5,-316.5 3961.5,-271 3911,-271"/>
<text xml:space="preserve" text-anchor="start" x="3916" y="-297" font-family="Linux libertine" font-size="10.00">UpBlock</text>
<text xml:space="preserve" text-anchor="start" x="3917.88" y="-284.25" font-family="Linux libertine" font-size="10.00">depth:1</text>
<polygon fill="none" stroke="black" points="3961.5,-293.75 3961.5,-316.5 4009,-316.5 4009,-293.75 3961.5,-293.75"/>
<text xml:space="preserve" text-anchor="start" x="3971.38" y="-302" font-family="Linux libertine" font-size="10.00">input:</text>
<polygon fill="none" stroke="black" points="4009,-293.75 4009,-316.5 4266.5,-316.5 4266.5,-293.75 4009,-293.75"/>
<text xml:space="preserve" text-anchor="start" x="4014" y="-302" font-family="Linux libertine" font-size="10.00">(1, 128, 16, 16, 16), 3 x (1, 64, 16, 16, 16), (1, 256) </text>
<polygon fill="none" stroke="black" points="3961.5,-271 3961.5,-293.75 4009,-293.75 4009,-271 3961.5,-271"/>
<text xml:space="preserve" text-anchor="start" x="3966.5" y="-279.25" font-family="Linux libertine" font-size="10.00">output: </text>
<polygon fill="none" stroke="black" points="4009,-271 4009,-293.75 4266.5,-293.75 4266.5,-271 4009,-271"/>
<text xml:space="preserve" text-anchor="start" x="4093.5" y="-279.25" font-family="Linux libertine" font-size="10.00">(1, 64, 16, 16, 16) </text>
</g>
<!-- 13&#45;&gt;21 -->
<g id="edge21" class="edge">
<title>13&#45;&gt;21</title>
<path fill="none" stroke="black" d="M1689.49,-214.39C1699.56,-218.76 1709.09,-224.41 1717,-231.75 1733.76,-247.3 1737.11,-312.35 1754,-327.75 1808.31,-377.27 1839.63,-372.75 1913.12,-372.75 1913.12,-372.75 1913.12,-372.75 3665.38,-372.75 3783.48,-372.75 3917.03,-342.54 4001.77,-319.48"/>
<polygon fill="black" stroke="black" points="4002.45,-322.92 4011.16,-316.9 4000.59,-316.17 4002.45,-322.92"/>
</g>
<!-- 14&#45;&gt;15 -->
<g id="edge22" class="edge">
<title>14&#45;&gt;15</title>
<path fill="none" stroke="black" d="M1716.93,-262.7C1725.33,-262.61 1733.94,-262.53 1742.63,-262.44"/>
<polygon fill="black" stroke="black" points="1742.62,-265.94 1752.58,-262.34 1742.55,-258.94 1742.62,-265.94"/>
</g>
<!-- 15&#45;&gt;16 -->
<g id="edge24" class="edge">
<title>15&#45;&gt;16</title>
<path fill="none" stroke="black" d="M1991.09,-238.11C2049.34,-220.75 2129.78,-196.77 2190.59,-178.65"/>
<polygon fill="black" stroke="black" points="2191.29,-182.1 2199.87,-175.89 2189.29,-175.39 2191.29,-182.1"/>
</g>
<!-- 15&#45;&gt;20 -->
<g id="edge25" class="edge">
<title>15&#45;&gt;20</title>
<path fill="none" stroke="black" d="M2073.84,-252.59C2137.17,-249.98 2210.77,-247.75 2277.5,-247.75 2277.5,-247.75 2277.5,-247.75 3245.88,-247.75 3310.07,-247.75 3379.81,-247.15 3443.58,-246.37"/>
<polygon fill="black" stroke="black" points="3443.53,-249.87 3453.49,-246.25 3443.44,-242.87 3443.53,-249.87"/>
</g>
<!-- 15&#45;&gt;21 -->
<g id="edge23" class="edge">
<title>15&#45;&gt;21</title>
<path fill="none" stroke="black" d="M2074.04,-281.51C2137.25,-288.12 2210.69,-293.75 2277.5,-293.75 2277.5,-293.75 2277.5,-293.75 3665.38,-293.75 3742.1,-293.75 3826.66,-293.75 3899.84,-293.75"/>
<polygon fill="black" stroke="black" points="3899.5,-297.25 3909.5,-293.75 3899.5,-290.25 3899.5,-297.25"/>
<text xml:space="preserve" text-anchor="middle" x="2908.62" y="-297" font-family="Times,serif" font-size="10.00"> x2</text>
</g>
<!-- 16&#45;&gt;17 -->
<g id="edge27" class="edge">
<title>16&#45;&gt;17</title>
<path fill="none" stroke="black" d="M2379.11,-130.05C2417.88,-121.21 2462.47,-111.05 2502.25,-101.99"/>
<polygon fill="black" stroke="black" points="2502.88,-105.43 2511.85,-99.8 2501.32,-98.61 2502.88,-105.43"/>
</g>
<!-- 16&#45;&gt;19 -->
<g id="edge28" class="edge">
<title>16&#45;&gt;19</title>
<path fill="none" stroke="black" d="M2445.56,-146.72C2616.95,-140.5 2883.62,-130.82 3060.96,-124.39"/>
<polygon fill="black" stroke="black" points="3060.87,-127.89 3070.73,-124.03 3060.61,-120.9 3060.87,-127.89"/>
</g>
<!-- 16&#45;&gt;20 -->
<g id="edge26" class="edge">
<title>16&#45;&gt;20</title>
<path fill="none" stroke="black" d="M2445.67,-163.86C2499.07,-166.59 2558.51,-168.75 2613,-168.75 2613,-168.75 2613,-168.75 3245.88,-168.75 3359.83,-168.75 3488.63,-195.81 3572.65,-217.2"/>
<polygon fill="black" stroke="black" points="3571.67,-220.56 3582.23,-219.67 3573.41,-213.78 3571.67,-220.56"/>
<text xml:space="preserve" text-anchor="middle" x="2908.62" y="-172" font-family="Times,serif" font-size="10.00"> x3</text>
</g>
<!-- 17&#45;&gt;18 -->
<g id="edge30" class="edge">
<title>17&#45;&gt;18</title>
<path fill="none" stroke="black" d="M2738.25,-54.01C2749.85,-51.87 2761.65,-49.69 2773.34,-47.53"/>
<polygon fill="black" stroke="black" points="2773.83,-51 2783.03,-45.74 2772.56,-44.12 2773.83,-51"/>
</g>
<!-- 17&#45;&gt;19 -->
<g id="edge29" class="edge">
<title>17&#45;&gt;19</title>
<path fill="none" stroke="black" d="M2745.19,-80.77C2828.2,-83.82 2938.01,-88.73 3035,-96 3043.41,-96.63 3052,-97.32 3060.67,-98.06"/>
<polygon fill="black" stroke="black" points="3060.34,-101.55 3070.61,-98.93 3060.95,-94.57 3060.34,-101.55"/>
<text xml:space="preserve" text-anchor="middle" x="2908.62" y="-99.25" font-family="Times,serif" font-size="10.00"> x2</text>
</g>
<!-- 18&#45;&gt;19 -->
<g id="edge31" class="edge">
<title>18&#45;&gt;19</title>
<path fill="none" stroke="black" d="M2989.26,-45.38C3038.46,-59.37 3101.75,-77.36 3152.92,-91.9"/>
<polygon fill="black" stroke="black" points="3151.95,-95.26 3162.52,-94.63 3153.86,-88.53 3151.95,-95.26"/>
</g>
<!-- 19&#45;&gt;20 -->
<g id="edge32" class="edge">
<title>19&#45;&gt;20</title>
<path fill="none" stroke="black" d="M3379.32,-140.45C3398.72,-144.66 3418.35,-149.44 3436.75,-154.75 3494.19,-171.32 3557.45,-196.5 3602.5,-215.68"/>
<polygon fill="black" stroke="black" points="3601.01,-218.85 3611.58,-219.57 3603.77,-212.42 3601.01,-218.85"/>
</g>
<!-- 20&#45;&gt;21 -->
<g id="edge33" class="edge">
<title>20&#45;&gt;21</title>
<path fill="none" stroke="black" d="M3853.71,-265.49C3869.11,-267.35 3884.68,-269.23 3900.07,-271.09"/>
<polygon fill="black" stroke="black" points="3899.4,-274.53 3909.75,-272.26 3900.24,-267.58 3899.4,-274.53"/>
</g>
<!-- 22 -->
<g id="node23" class="node">
<title>22</title>
<polygon fill="#c1ffc1" stroke="none" points="4511.25,-316.5 4303.5,-316.5 4303.5,-271 4511.25,-271 4511.25,-316.5"/>
<polygon fill="none" stroke="black" points="4303.5,-271 4303.5,-316.5 4365.25,-316.5 4365.25,-271 4303.5,-271"/>
<text xml:space="preserve" text-anchor="start" x="4308.5" y="-297" font-family="Linux libertine" font-size="10.00">Sequential</text>
<text xml:space="preserve" text-anchor="start" x="4316" y="-284.25" font-family="Linux libertine" font-size="10.00">depth:1</text>
<polygon fill="none" stroke="black" points="4365.25,-293.75 4365.25,-316.5 4412.75,-316.5 4412.75,-293.75 4365.25,-293.75"/>
<text xml:space="preserve" text-anchor="start" x="4375.12" y="-302" font-family="Linux libertine" font-size="10.00">input:</text>
<polygon fill="none" stroke="black" points="4412.75,-293.75 4412.75,-316.5 4511.25,-316.5 4511.25,-293.75 4412.75,-293.75"/>
<text xml:space="preserve" text-anchor="start" x="4417.75" y="-302" font-family="Linux libertine" font-size="10.00">(1, 64, 16, 16, 16) </text>
<polygon fill="none" stroke="black" points="4365.25,-271 4365.25,-293.75 4412.75,-293.75 4412.75,-271 4365.25,-271"/>
<text xml:space="preserve" text-anchor="start" x="4370.25" y="-279.25" font-family="Linux libertine" font-size="10.00">output: </text>
<polygon fill="none" stroke="black" points="4412.75,-271 4412.75,-293.75 4511.25,-293.75 4511.25,-271 4412.75,-271"/>
<text xml:space="preserve" text-anchor="start" x="4417.75" y="-279.25" font-family="Linux libertine" font-size="10.00">(1, 16, 16, 16, 16) </text>
</g>
<!-- 21&#45;&gt;22 -->
<g id="edge34" class="edge">
<title>21&#45;&gt;22</title>
<path fill="none" stroke="black" d="M4266.12,-293.75C4274.9,-293.75 4283.61,-293.75 4292.14,-293.75"/>
<polygon fill="black" stroke="black" points="4292.13,-297.25 4302.13,-293.75 4292.13,-290.25 4292.13,-297.25"/>
</g>
<!-- 23 -->
<g id="node24" class="node">
<title>23</title>
<polygon fill="lightyellow" stroke="none" points="4719.75,-311.5 4548.25,-311.5 4548.25,-276 4719.75,-276 4719.75,-311.5"/>
<polygon fill="none" stroke="black" points="4548.25,-276 4548.25,-311.5 4624.25,-311.5 4624.25,-276 4548.25,-276"/>
<text xml:space="preserve" text-anchor="start" x="4553.25" y="-297" font-family="Linux libertine" font-size="10.00">output&#45;tensor</text>
<text xml:space="preserve" text-anchor="start" x="4567.88" y="-284.25" font-family="Linux libertine" font-size="10.00">depth:0</text>
<polygon fill="none" stroke="black" points="4624.25,-276 4624.25,-311.5 4719.75,-311.5 4719.75,-276 4624.25,-276"/>
<text xml:space="preserve" text-anchor="start" x="4629.25" y="-290.62" font-family="Linux libertine" font-size="10.00">(1, 16, 16, 16, 16)</text>
</g>
<!-- 22&#45;&gt;23 -->
<g id="edge35" class="edge">
<title>22&#45;&gt;23</title>
<path fill="none" stroke="black" d="M4511.16,-293.75C4519.83,-293.75 4528.58,-293.75 4537.2,-293.75"/>
<polygon fill="black" stroke="black" points="4536.92,-297.25 4546.92,-293.75 4536.92,-290.25 4536.92,-297.25"/>
</g>
</g>
</svg>
