<?xml version="1.0" encoding="UTF-8" standalone="no"?>
<!DOCTYPE svg PUBLIC "-//W3C//DTD SVG 1.1//EN"
 "http://www.w3.org/Graphics/SVG/1.1/DTD/svg11.dtd">
<!-- Generated by graphviz version 14.1.0 (20251207.0913)
 -->
<!-- Title: model Pages: 1 -->
<svg width="1361pt" height="274pt"
 viewBox="0.00 0.00 1361.00 274.00" xmlns="http://www.w3.org/2000/svg" xmlns:xlink="http://www.w3.org/1999/xlink">
<g id="graph0" class="graph" transform="scale(0.738971 0.738971) rotate(0) translate(4 366.75)">
<title>model</title>
<polygon fill="white" stroke="none" points="-4,4 -4,-366.75 1837.75,-366.75 1837.75,4 -4,4"/>
<!-- 0 -->
<g id="node1" class="node">
<title>0</title>
<polygon fill="lightyellow" stroke="none" points="752,-261.5 682.75,-261.5 682.75,-226 752,-226 752,-261.5"/>
<polygon fill="none" stroke="black" points="682.75,-226 682.75,-261.5 752,-261.5 752,-226 682.75,-226"/>
<text xml:space="preserve" text-anchor="start" x="687.75" y="-247" font-family="Linux libertine" font-size="10.00">input&#45;tensor</text>
<text xml:space="preserve" text-anchor="start" x="699" y="-234.25" font-family="Linux libertine" font-size="10.00">depth:0</text>
</g>
<!-- 14 -->
<g id="node15" class="node">
<title>14</title>
<polygon fill="#c1ffc1" stroke="none" points="857.5,-261.5 789,-261.5 789,-226 857.5,-226 857.5,-261.5"/>
<polygon fill="none" stroke="black" points="789,-226 789,-261.5 857.5,-261.5 857.5,-226 789,-226"/>
<text xml:space="preserve" text-anchor="start" x="794" y="-247" font-family="Linux libertine" font-size="10.00">Convolution</text>
<text xml:space="preserve" text-anchor="start" x="804.88" y="-234.25" font-family="Linux libertine" font-size="10.00">depth:1</text>
</g>
<!-- 0&#45;&gt;14 -->
<g id="edge1" class="edge">
<title>0&#45;&gt;14</title>
<path fill="none" stroke="black" d="M751.81,-243.75C760.14,-243.75 769.2,-243.75 777.97,-243.75"/>
<polygon fill="black" stroke="black" points="777.72,-247.25 787.72,-243.75 777.72,-240.25 777.72,-247.25"/>
</g>
<!-- 1 -->
<g id="node2" class="node">
<title>1</title>
<polygon fill="lightyellow" stroke="none" points="160.25,-235.5 91,-235.5 91,-200 160.25,-200 160.25,-235.5"/>
<polygon fill="none" stroke="black" points="91,-200 91,-235.5 160.25,-235.5 160.25,-200 91,-200"/>
<text xml:space="preserve" text-anchor="start" x="96" y="-221" font-family="Linux libertine" font-size="10.00">input&#45;tensor</text>
<text xml:space="preserve" text-anchor="start" x="107.25" y="-208.25" font-family="Linux libertine" font-size="10.00">depth:0</text>
</g>
<!-- 5 -->
<g id="node6" class="node">
<title>5</title>
<polygon fill="aliceblue" stroke="none" points="266.5,-235.5 197.25,-235.5 197.25,-200 266.5,-200 266.5,-235.5"/>
<polygon fill="none" stroke="black" points="197.25,-200 197.25,-235.5 266.5,-235.5 266.5,-200 197.25,-200"/>
<text xml:space="preserve" text-anchor="start" x="202.25" y="-221" font-family="Linux libertine" font-size="10.00">__getitem__</text>
<text xml:space="preserve" text-anchor="start" x="213.5" y="-208.25" font-family="Linux libertine" font-size="10.00">depth:1</text>
</g>
<!-- 1&#45;&gt;5 -->
<g id="edge2" class="edge">
<title>1&#45;&gt;5</title>
<path fill="none" stroke="black" d="M160.18,-217.75C168.37,-217.75 177.26,-217.75 185.88,-217.75"/>
<polygon fill="black" stroke="black" points="185.87,-221.25 195.87,-217.75 185.87,-214.25 185.87,-221.25"/>
</g>
<!-- 2 -->
<g id="node3" class="node">
<title>2</title>
<polygon fill="aliceblue" stroke="none" points="54,-181.5 0,-181.5 0,-146 54,-146 54,-181.5"/>
<polygon fill="none" stroke="black" points="3.62,-146 3.62,-181.5 50.38,-181.5 50.38,-146 3.62,-146"/>
<text xml:space="preserve" text-anchor="start" x="17.62" y="-167" font-family="Linux libertine" font-size="10.00">mul</text>
<text xml:space="preserve" text-anchor="start" x="8.62" y="-154.25" font-family="Linux libertine" font-size="10.00">depth:1</text>
</g>
<!-- 3 -->
<g id="node4" class="node">
<title>3</title>
<polygon fill="aliceblue" stroke="none" points="152.62,-181.5 98.62,-181.5 98.62,-146 152.62,-146 152.62,-181.5"/>
<polygon fill="none" stroke="black" points="102.25,-146 102.25,-181.5 149,-181.5 149,-146 102.25,-146"/>
<text xml:space="preserve" text-anchor="start" x="118.12" y="-167" font-family="Linux libertine" font-size="10.00">div</text>
<text xml:space="preserve" text-anchor="start" x="107.25" y="-154.25" font-family="Linux libertine" font-size="10.00">depth:1</text>
</g>
<!-- 2&#45;&gt;3 -->
<g id="edge3" class="edge">
<title>2&#45;&gt;3</title>
<path fill="none" stroke="black" d="M53.89,-163.75C64.18,-163.75 76.22,-163.75 87.41,-163.75"/>
<polygon fill="black" stroke="black" points="87.15,-167.25 97.15,-163.75 87.15,-160.25 87.15,-167.25"/>
</g>
<!-- 4 -->
<g id="node5" class="node">
<title>4</title>
<polygon fill="aliceblue" stroke="none" points="258.88,-181.5 204.88,-181.5 204.88,-146 258.88,-146 258.88,-181.5"/>
<polygon fill="none" stroke="black" points="208.5,-146 208.5,-181.5 255.25,-181.5 255.25,-146 208.5,-146"/>
<text xml:space="preserve" text-anchor="start" x="222.88" y="-167" font-family="Linux libertine" font-size="10.00">exp</text>
<text xml:space="preserve" text-anchor="start" x="213.5" y="-154.25" font-family="Linux libertine" font-size="10.00">depth:1</text>
</g>
<!-- 3&#45;&gt;4 -->
<g id="edge4" class="edge">
<title>3&#45;&gt;4</title>
<path fill="none" stroke="black" d="M152.39,-163.75C164.8,-163.75 179.91,-163.75 193.54,-163.75"/>
<polygon fill="black" stroke="black" points="193.53,-167.25 203.53,-163.75 193.53,-160.25 193.53,-167.25"/>
</g>
<!-- 7 -->
<g id="node8" class="node">
<title>7</title>
<polygon fill="aliceblue" stroke="none" points="372.75,-181.5 303.5,-181.5 303.5,-146 372.75,-146 372.75,-181.5"/>
<polygon fill="none" stroke="black" points="303.5,-146 303.5,-181.5 372.75,-181.5 372.75,-146 303.5,-146"/>
<text xml:space="preserve" text-anchor="start" x="308.5" y="-167" font-family="Linux libertine" font-size="10.00">__getitem__</text>
<text xml:space="preserve" text-anchor="start" x="319.75" y="-154.25" font-family="Linux libertine" font-size="10.00">depth:1</text>
</g>
<!-- 4&#45;&gt;7 -->
<g id="edge5" class="edge">
<title>4&#45;&gt;7</title>
<path fill="none" stroke="black" d="M258.64,-163.75C268.86,-163.75 280.92,-163.75 292.47,-163.75"/>
<polygon fill="black" stroke="black" points="292.26,-167.25 302.26,-163.75 292.26,-160.25 292.26,-167.25"/>
</g>
<!-- 6 -->
<g id="node7" class="node">
<title>6</title>
<polygon fill="aliceblue" stroke="none" points="365.12,-235.5 311.12,-235.5 311.12,-200 365.12,-200 365.12,-235.5"/>
<polygon fill="none" stroke="black" points="314.75,-200 314.75,-235.5 361.5,-235.5 361.5,-200 314.75,-200"/>
<text xml:space="preserve" text-anchor="start" x="327.25" y="-221" font-family="Linux libertine" font-size="10.00">float</text>
<text xml:space="preserve" text-anchor="start" x="319.75" y="-208.25" font-family="Linux libertine" font-size="10.00">depth:1</text>
</g>
<!-- 5&#45;&gt;6 -->
<g id="edge6" class="edge">
<title>5&#45;&gt;6</title>
<path fill="none" stroke="black" d="M266.43,-217.75C277.1,-217.75 288.96,-217.75 299.87,-217.75"/>
<polygon fill="black" stroke="black" points="299.72,-221.25 309.72,-217.75 299.72,-214.25 299.72,-221.25"/>
</g>
<!-- 8 -->
<g id="node9" class="node">
<title>8</title>
<polygon fill="aliceblue" stroke="none" points="463.75,-207.5 409.75,-207.5 409.75,-172 463.75,-172 463.75,-207.5"/>
<polygon fill="none" stroke="black" points="413.38,-172 413.38,-207.5 460.12,-207.5 460.12,-172 413.38,-172"/>
<text xml:space="preserve" text-anchor="start" x="427.38" y="-193" font-family="Linux libertine" font-size="10.00">mul</text>
<text xml:space="preserve" text-anchor="start" x="418.38" y="-180.25" font-family="Linux libertine" font-size="10.00">depth:1</text>
</g>
<!-- 6&#45;&gt;8 -->
<g id="edge7" class="edge">
<title>6&#45;&gt;8</title>
<path fill="none" stroke="black" d="M365.02,-210.25C375.42,-207.23 387.59,-203.7 398.89,-200.43"/>
<polygon fill="black" stroke="black" points="399.7,-203.84 408.33,-197.7 397.75,-197.12 399.7,-203.84"/>
</g>
<!-- 7&#45;&gt;8 -->
<g id="edge8" class="edge">
<title>7&#45;&gt;8</title>
<path fill="none" stroke="black" d="M372.65,-172.77C381.14,-175.05 390.3,-177.52 398.94,-179.85"/>
<polygon fill="black" stroke="black" points="397.88,-183.18 408.44,-182.4 399.7,-176.42 397.88,-183.18"/>
</g>
<!-- 9 -->
<g id="node10" class="node">
<title>9</title>
<polygon fill="aliceblue" stroke="none" points="554.75,-235.5 500.75,-235.5 500.75,-200 554.75,-200 554.75,-235.5"/>
<polygon fill="none" stroke="black" points="504.38,-200 504.38,-235.5 551.12,-235.5 551.12,-200 504.38,-200"/>
<text xml:space="preserve" text-anchor="start" x="519.5" y="-221" font-family="Linux libertine" font-size="10.00">cos</text>
<text xml:space="preserve" text-anchor="start" x="509.38" y="-208.25" font-family="Linux libertine" font-size="10.00">depth:1</text>
</g>
<!-- 8&#45;&gt;9 -->
<g id="edge9" class="edge">
<title>8&#45;&gt;9</title>
<path fill="none" stroke="black" d="M463.49,-197.85C471.72,-200.44 481,-203.36 489.86,-206.15"/>
<polygon fill="black" stroke="black" points="488.72,-209.46 499.31,-209.12 490.82,-202.78 488.72,-209.46"/>
</g>
<!-- 10 -->
<g id="node11" class="node">
<title>10</title>
<polygon fill="aliceblue" stroke="none" points="554.75,-181.5 500.75,-181.5 500.75,-146 554.75,-146 554.75,-181.5"/>
<polygon fill="none" stroke="black" points="504.38,-146 504.38,-181.5 551.12,-181.5 551.12,-146 504.38,-146"/>
<text xml:space="preserve" text-anchor="start" x="520.62" y="-167" font-family="Linux libertine" font-size="10.00">sin</text>
<text xml:space="preserve" text-anchor="start" x="509.38" y="-154.25" font-family="Linux libertine" font-size="10.00">depth:1</text>
</g>
<!-- 8&#45;&gt;10 -->
<g id="edge10" class="edge">
<title>8&#45;&gt;10</title>
<path fill="none" stroke="black" d="M463.49,-182.23C471.72,-179.83 481,-177.12 489.86,-174.53"/>
<polygon fill="black" stroke="black" points="490.69,-177.93 499.3,-171.77 488.72,-171.21 490.69,-177.93"/>
</g>
<!-- 11 -->
<g id="node12" class="node">
<title>11</title>
<polygon fill="aliceblue" stroke="none" points="645.75,-207.5 591.75,-207.5 591.75,-172 645.75,-172 645.75,-207.5"/>
<polygon fill="none" stroke="black" points="595.38,-172 595.38,-207.5 642.12,-207.5 642.12,-172 595.38,-172"/>
<text xml:space="preserve" text-anchor="start" x="611.25" y="-193" font-family="Linux libertine" font-size="10.00">cat</text>
<text xml:space="preserve" text-anchor="start" x="600.38" y="-180.25" font-family="Linux libertine" font-size="10.00">depth:1</text>
</g>
<!-- 9&#45;&gt;11 -->
<g id="edge11" class="edge">
<title>9&#45;&gt;11</title>
<path fill="none" stroke="black" d="M554.49,-209.65C562.72,-207.06 572,-204.14 580.86,-201.35"/>
<polygon fill="black" stroke="black" points="581.82,-204.72 590.31,-198.38 579.72,-198.04 581.82,-204.72"/>
</g>
<!-- 10&#45;&gt;11 -->
<g id="edge12" class="edge">
<title>10&#45;&gt;11</title>
<path fill="none" stroke="black" d="M554.49,-171.27C562.72,-173.67 572,-176.38 580.86,-178.97"/>
<polygon fill="black" stroke="black" points="579.72,-182.29 590.3,-181.73 581.69,-175.57 579.72,-182.29"/>
</g>
<!-- 12 -->
<g id="node13" class="node">
<title>12</title>
<polygon fill="aliceblue" stroke="none" points="744.38,-207.5 690.38,-207.5 690.38,-172 744.38,-172 744.38,-207.5"/>
<polygon fill="none" stroke="black" points="694,-172 694,-207.5 740.75,-207.5 740.75,-172 694,-172"/>
<text xml:space="preserve" text-anchor="start" x="712.5" y="-193" font-family="Linux libertine" font-size="10.00">to</text>
<text xml:space="preserve" text-anchor="start" x="699" y="-180.25" font-family="Linux libertine" font-size="10.00">depth:1</text>
</g>
<!-- 11&#45;&gt;12 -->
<g id="edge13" class="edge">
<title>11&#45;&gt;12</title>
<path fill="none" stroke="black" d="M645.64,-189.75C655.93,-189.75 667.97,-189.75 679.16,-189.75"/>
<polygon fill="black" stroke="black" points="678.9,-193.25 688.9,-189.75 678.9,-186.25 678.9,-193.25"/>
</g>
<!-- 13 -->
<g id="node14" class="node">
<title>13</title>
<polygon fill="#c1ffc1" stroke="none" points="854.12,-207.5 792.38,-207.5 792.38,-172 854.12,-172 854.12,-207.5"/>
<polygon fill="none" stroke="black" points="792.38,-172 792.38,-207.5 854.12,-207.5 854.12,-172 792.38,-172"/>
<text xml:space="preserve" text-anchor="start" x="797.38" y="-193" font-family="Linux libertine" font-size="10.00">Sequential</text>
<text xml:space="preserve" text-anchor="start" x="804.88" y="-180.25" font-family="Linux libertine" font-size="10.00">depth:1</text>
</g>
<!-- 12&#45;&gt;13 -->
<g id="edge14" class="edge">
<title>12&#45;&gt;13</title>
<path fill="none" stroke="black" d="M744.32,-189.75C755.55,-189.75 768.95,-189.75 781.46,-189.75"/>
<polygon fill="black" stroke="black" points="781.09,-193.25 791.09,-189.75 781.09,-186.25 781.09,-193.25"/>
</g>
<!-- 15 -->
<g id="node16" class="node">
<title>15</title>
<polygon fill="#c1ffc1" stroke="none" points="959.25,-263.5 894.5,-263.5 894.5,-228 959.25,-228 959.25,-263.5"/>
<polygon fill="none" stroke="black" points="894.5,-228 894.5,-263.5 959.25,-263.5 959.25,-228 894.5,-228"/>
<text xml:space="preserve" text-anchor="start" x="899.5" y="-249" font-family="Linux libertine" font-size="10.00">DownBlock</text>
<text xml:space="preserve" text-anchor="start" x="908.5" y="-236.25" font-family="Linux libertine" font-size="10.00">depth:1</text>
</g>
<!-- 13&#45;&gt;15 -->
<g id="edge15" class="edge">
<title>13&#45;&gt;15</title>
<path fill="none" stroke="black" d="M853.92,-206.1C863.5,-211.38 874.3,-217.33 884.56,-222.98"/>
<polygon fill="black" stroke="black" points="882.8,-226.01 893.25,-227.77 886.18,-219.88 882.8,-226.01"/>
</g>
<!-- 16 -->
<g id="node17" class="node">
<title>16</title>
<polygon fill="#c1ffc1" stroke="none" points="1081.25,-155.5 996.25,-155.5 996.25,-120 1081.25,-120 1081.25,-155.5"/>
<polygon fill="none" stroke="black" points="996.25,-120 996.25,-155.5 1081.25,-155.5 1081.25,-120 996.25,-120"/>
<text xml:space="preserve" text-anchor="start" x="1001.25" y="-141" font-family="Linux libertine" font-size="10.00">AttnDownBlock</text>
<text xml:space="preserve" text-anchor="start" x="1020.38" y="-128.25" font-family="Linux libertine" font-size="10.00">depth:1</text>
</g>
<!-- 13&#45;&gt;16 -->
<g id="edge16" class="edge">
<title>13&#45;&gt;16</title>
<path fill="none" stroke="black" d="M853.94,-182.52C887.94,-174.24 944.29,-160.51 985.65,-150.44"/>
<polygon fill="black" stroke="black" points="986.26,-153.89 995.15,-148.13 984.6,-147.09 986.26,-153.89"/>
</g>
<!-- 17 -->
<g id="node18" class="node">
<title>17</title>
<polygon fill="#c1ffc1" stroke="none" points="1203.25,-88.5 1118.25,-88.5 1118.25,-53 1203.25,-53 1203.25,-88.5"/>
<polygon fill="none" stroke="black" points="1118.25,-53 1118.25,-88.5 1203.25,-88.5 1203.25,-53 1118.25,-53"/>
<text xml:space="preserve" text-anchor="start" x="1123.25" y="-74" font-family="Linux libertine" font-size="10.00">AttnDownBlock</text>
<text xml:space="preserve" text-anchor="start" x="1142.38" y="-61.25" font-family="Linux libertine" font-size="10.00">depth:1</text>
</g>
<!-- 13&#45;&gt;17 -->
<g id="edge17" class="edge">
<title>13&#45;&gt;17</title>
<path fill="none" stroke="black" d="M854.02,-173.28C866.41,-166.64 881.02,-159.07 894.5,-152.75 938.8,-131.99 949.74,-125.94 996.25,-110.75 1032.78,-98.82 1074.92,-88.59 1107.27,-81.46"/>
<polygon fill="black" stroke="black" points="1107.77,-84.94 1116.8,-79.4 1106.28,-78.1 1107.77,-84.94"/>
</g>
<!-- 18 -->
<g id="node19" class="node">
<title>18</title>
<polygon fill="#c1ffc1" stroke="none" points="1315.5,-35.5 1240.25,-35.5 1240.25,0 1315.5,0 1315.5,-35.5"/>
<polygon fill="none" stroke="black" points="1240.25,0 1240.25,-35.5 1315.5,-35.5 1315.5,0 1240.25,0"/>
<text xml:space="preserve" text-anchor="start" x="1245.25" y="-21" font-family="Linux libertine" font-size="10.00">AttnMidBlock</text>
<text xml:space="preserve" text-anchor="start" x="1259.5" y="-8.25" font-family="Linux libertine" font-size="10.00">depth:1</text>
</g>
<!-- 13&#45;&gt;18 -->
<g id="edge18" class="edge">
<title>13&#45;&gt;18</title>
<path fill="none" stroke="black" d="M826.63,-172.09C833.46,-129.53 857.24,-24.75 925.88,-24.75 925.88,-24.75 925.88,-24.75 1161.75,-24.75 1183.86,-24.75 1208.32,-23.45 1228.99,-21.97"/>
<polygon fill="black" stroke="black" points="1229.14,-25.46 1238.85,-21.22 1228.61,-18.48 1229.14,-25.46"/>
</g>
<!-- 19 -->
<g id="node20" class="node">
<title>19</title>
<polygon fill="#c1ffc1" stroke="none" points="1423.25,-130.5 1352.5,-130.5 1352.5,-95 1423.25,-95 1423.25,-130.5"/>
<polygon fill="none" stroke="black" points="1352.5,-95 1352.5,-130.5 1423.25,-130.5 1423.25,-95 1352.5,-95"/>
<text xml:space="preserve" text-anchor="start" x="1357.5" y="-116" font-family="Linux libertine" font-size="10.00">AttnUpBlock</text>
<text xml:space="preserve" text-anchor="start" x="1369.5" y="-103.25" font-family="Linux libertine" font-size="10.00">depth:1</text>
</g>
<!-- 13&#45;&gt;19 -->
<g id="edge19" class="edge">
<title>13&#45;&gt;19</title>
<path fill="none" stroke="black" d="M853.97,-194.22C874.19,-196.89 901.59,-199.75 925.88,-199.75 925.88,-199.75 925.88,-199.75 1278.88,-199.75 1317.73,-199.75 1350.52,-165.18 1369.44,-139.62"/>
<polygon fill="black" stroke="black" points="1372.21,-141.77 1375.13,-131.59 1366.49,-137.73 1372.21,-141.77"/>
</g>
<!-- 20 -->
<g id="node21" class="node">
<title>20</title>
<polygon fill="#c1ffc1" stroke="none" points="1531,-255.5 1460.25,-255.5 1460.25,-220 1531,-220 1531,-255.5"/>
<polygon fill="none" stroke="black" points="1460.25,-220 1460.25,-255.5 1531,-255.5 1531,-220 1460.25,-220"/>
<text xml:space="preserve" text-anchor="start" x="1465.25" y="-241" font-family="Linux libertine" font-size="10.00">AttnUpBlock</text>
<text xml:space="preserve" text-anchor="start" x="1477.25" y="-228.25" font-family="Linux libertine" font-size="10.00">depth:1</text>
</g>
<!-- 13&#45;&gt;20 -->
<g id="edge20" class="edge">
<title>13&#45;&gt;20</title>
<path fill="none" stroke="black" d="M848.01,-207.43C851.36,-210.38 854.63,-213.53 857.5,-216.75 895.24,-259.21 869.06,-324.75 925.88,-324.75 925.88,-324.75 925.88,-324.75 1388.88,-324.75 1427.24,-324.75 1459.26,-290.18 1477.69,-264.62"/>
<polygon fill="black" stroke="black" points="1480.42,-266.82 1483.21,-256.6 1474.66,-262.85 1480.42,-266.82"/>
</g>
<!-- 21 -->
<g id="node22" class="node">
<title>21</title>
<polygon fill="#c1ffc1" stroke="none" points="1622,-301.5 1568,-301.5 1568,-266 1622,-266 1622,-301.5"/>
<polygon fill="none" stroke="black" points="1569.75,-266 1569.75,-301.5 1620.25,-301.5 1620.25,-266 1569.75,-266"/>
<text xml:space="preserve" text-anchor="start" x="1574.75" y="-287" font-family="Linux libertine" font-size="10.00">UpBlock</text>
<text xml:space="preserve" text-anchor="start" x="1576.62" y="-274.25" font-family="Linux libertine" font-size="10.00">depth:1</text>
</g>
<!-- 13&#45;&gt;21 -->
<g id="edge21" class="edge">
<title>13&#45;&gt;21</title>
<path fill="none" stroke="black" d="M849.46,-207.46C852.45,-210.31 855.24,-213.43 857.5,-216.75 897.88,-275.94 854.22,-362.75 925.88,-362.75 925.88,-362.75 925.88,-362.75 1496.62,-362.75 1530.53,-362.75 1559.22,-333.51 1576.5,-310.61"/>
<polygon fill="black" stroke="black" points="1579.32,-312.68 1582.3,-302.51 1573.63,-308.6 1579.32,-312.68"/>
</g>
<!-- 14&#45;&gt;15 -->
<g id="edge22" class="edge">
<title>14&#45;&gt;15</title>
<path fill="none" stroke="black" d="M857.24,-244.4C865.63,-244.56 874.75,-244.74 883.53,-244.92"/>
<polygon fill="black" stroke="black" points="883.19,-248.41 893.26,-245.11 883.33,-241.41 883.19,-248.41"/>
</g>
<!-- 15&#45;&gt;16 -->
<g id="edge24" class="edge">
<title>15&#45;&gt;16</title>
<path fill="none" stroke="black" d="M945.53,-228.4C963.44,-210.79 991.37,-183.34 1011.8,-163.25"/>
<polygon fill="black" stroke="black" points="1014.02,-165.98 1018.7,-156.48 1009.11,-160.99 1014.02,-165.98"/>
</g>
<!-- 15&#45;&gt;20 -->
<g id="edge25" class="edge">
<title>15&#45;&gt;20</title>
<path fill="none" stroke="black" d="M959.09,-242.26C981.06,-240.11 1011.16,-237.75 1037.75,-237.75 1037.75,-237.75 1037.75,-237.75 1388.88,-237.75 1408.55,-237.75 1430.28,-237.75 1448.9,-237.75"/>
<polygon fill="black" stroke="black" points="1448.82,-241.25 1458.82,-237.75 1448.82,-234.25 1448.82,-241.25"/>
</g>
<!-- 15&#45;&gt;21 -->
<g id="edge23" class="edge">
<title>15&#45;&gt;21</title>
<path fill="none" stroke="black" d="M959.1,-262.75C980.57,-272.87 1010.1,-283.75 1037.75,-283.75 1037.75,-283.75 1037.75,-283.75 1496.62,-283.75 1516.59,-283.75 1538.87,-283.75 1557.07,-283.75"/>
<polygon fill="black" stroke="black" points="1556.86,-287.25 1566.86,-283.75 1556.86,-280.25 1556.86,-287.25"/>
<text xml:space="preserve" text-anchor="middle" x="1277.88" y="-287" font-family="Times,serif" font-size="10.00"> x2</text>
</g>
<!-- 16&#45;&gt;17 -->
<g id="edge27" class="edge">
<title>16&#45;&gt;17</title>
<path fill="none" stroke="black" d="M1069.26,-120.04C1078.78,-114.42 1089.41,-108.24 1099.25,-102.75 1104.57,-99.78 1110.18,-96.72 1115.76,-93.72"/>
<polygon fill="black" stroke="black" points="1117.18,-96.93 1124.35,-89.13 1113.88,-90.75 1117.18,-96.93"/>
</g>
<!-- 16&#45;&gt;19 -->
<g id="edge28" class="edge">
<title>16&#45;&gt;19</title>
<path fill="none" stroke="black" d="M1080.93,-134.78C1146.29,-130.08 1273.32,-120.93 1341.32,-116.03"/>
<polygon fill="black" stroke="black" points="1341.27,-119.54 1350.99,-115.33 1340.77,-112.56 1341.27,-119.54"/>
</g>
<!-- 16&#45;&gt;20 -->
<g id="edge26" class="edge">
<title>16&#45;&gt;20</title>
<path fill="none" stroke="black" d="M1081.09,-148.62C1104.08,-153.74 1133.31,-158.75 1159.75,-158.75 1159.75,-158.75 1159.75,-158.75 1388.88,-158.75 1424.89,-158.75 1456.53,-188.52 1475.61,-211.51"/>
<polygon fill="black" stroke="black" points="1472.62,-213.37 1481.58,-219.03 1478.1,-209.02 1472.62,-213.37"/>
<text xml:space="preserve" text-anchor="middle" x="1277.88" y="-162" font-family="Times,serif" font-size="10.00"> x3</text>
</g>
<!-- 17&#45;&gt;18 -->
<g id="edge30" class="edge">
<title>17&#45;&gt;18</title>
<path fill="none" stroke="black" d="M1200.08,-53.1C1209.7,-48.68 1220.12,-43.88 1230.09,-39.29"/>
<polygon fill="black" stroke="black" points="1231.27,-42.6 1238.89,-35.24 1228.35,-36.24 1231.27,-42.6"/>
</g>
<!-- 17&#45;&gt;19 -->
<g id="edge29" class="edge">
<title>17&#45;&gt;19</title>
<path fill="none" stroke="black" d="M1203.01,-71.94C1234.24,-73.54 1278.01,-77.27 1315.5,-86 1324.2,-88.03 1333.27,-90.84 1341.92,-93.89"/>
<polygon fill="black" stroke="black" points="1340.57,-97.13 1351.16,-97.31 1343,-90.56 1340.57,-97.13"/>
<text xml:space="preserve" text-anchor="middle" x="1277.88" y="-89.25" font-family="Times,serif" font-size="10.00"> x2</text>
</g>
<!-- 18&#45;&gt;19 -->
<g id="edge31" class="edge">
<title>18&#45;&gt;19</title>
<path fill="none" stroke="black" d="M1305.39,-35.31C1314.87,-41.97 1325.44,-49.86 1334.5,-57.75 1344.7,-66.64 1355.14,-77.23 1363.98,-86.74"/>
<polygon fill="black" stroke="black" points="1361.26,-88.95 1370.58,-93.97 1366.42,-84.23 1361.26,-88.95"/>
</g>
<!-- 19&#45;&gt;20 -->
<g id="edge32" class="edge">
<title>19&#45;&gt;20</title>
<path fill="none" stroke="black" d="M1422.99,-129.59C1429.86,-133.93 1436.67,-139.02 1442.25,-144.75 1460.48,-163.49 1474.53,-189.82 1483.46,-209.68"/>
<polygon fill="black" stroke="black" points="1480.24,-211.06 1487.41,-218.86 1486.67,-208.29 1480.24,-211.06"/>
</g>
<!-- 20&#45;&gt;21 -->
<g id="edge33" class="edge">
<title>20&#45;&gt;21</title>
<path fill="none" stroke="black" d="M1530.96,-253.97C1539.68,-258.09 1549.07,-262.53 1557.88,-266.69"/>
<polygon fill="black" stroke="black" points="1556.34,-269.83 1566.87,-270.93 1559.33,-263.5 1556.34,-269.83"/>
</g>
<!-- 22 -->
<g id="node23" class="node">
<title>22</title>
<polygon fill="#c1ffc1" stroke="none" points="1720.75,-301.5 1659,-301.5 1659,-266 1720.75,-266 1720.75,-301.5"/>
<polygon fill="none" stroke="black" points="1659,-266 1659,-301.5 1720.75,-301.5 1720.75,-266 1659,-266"/>
<text xml:space="preserve" text-anchor="start" x="1664" y="-287" font-family="Linux libertine" font-size="10.00">Sequential</text>
<text xml:space="preserve" text-anchor="start" x="1671.5" y="-274.25" font-family="Linux libertine" font-size="10.00">depth:1</text>
</g>
<!-- 21&#45;&gt;22 -->
<g id="edge34" class="edge">
<title>21&#45;&gt;22</title>
<path fill="none" stroke="black" d="M1621.87,-283.75C1629.93,-283.75 1639.03,-283.75 1647.86,-283.75"/>
<polygon fill="black" stroke="black" points="1647.7,-287.25 1657.7,-283.75 1647.7,-280.25 1647.7,-287.25"/>
</g>
<!-- 23 -->
<g id="node24" class="node">
<title>23</title>
<polygon fill="lightyellow" stroke="none" points="1833.75,-301.5 1757.75,-301.5 1757.75,-266 1833.75,-266 1833.75,-301.5"/>
<polygon fill="none" stroke="black" points="1757.75,-266 1757.75,-301.5 1833.75,-301.5 1833.75,-266 1757.75,-266"/>
<text xml:space="preserve" text-anchor="start" x="1762.75" y="-287" font-family="Linux libertine" font-size="10.00">output&#45;tensor</text>
<text xml:space="preserve" text-anchor="start" x="1777.38" y="-274.25" font-family="Linux libertine" font-size="10.00">depth:0</text>
</g>
<!-- 22&#45;&gt;23 -->
<g id="edge35" class="edge">
<title>22&#45;&gt;23</title>
<path fill="none" stroke="black" d="M1720.64,-283.75C1728.73,-283.75 1737.7,-283.75 1746.52,-283.75"/>
<polygon fill="black" stroke="black" points="1746.44,-287.25 1756.44,-283.75 1746.44,-280.25 1746.44,-287.25"/>
</g>
</g>
</svg>
