<?xml version="1.0" encoding="UTF-8" standalone="no"?>
<!DOCTYPE svg PUBLIC "-//W3C//DTD SVG 1.1//EN"
 "http://www.w3.org/Graphics/SVG/1.1/DTD/svg11.dtd">
<!-- Generated by graphviz version 14.1.0 (20251207.0913)
 -->
<!-- Title: Vae 3D Architecture Pages: 1 -->
<svg width="2290pt" height="154pt"
 viewBox="0.00 0.00 2290.00 154.00" xmlns="http://www.w3.org/2000/svg" xmlns:xlink="http://www.w3.org/1999/xlink">
<g id="graph0" class="graph" transform="scale(0.91099 0.91099) rotate(0) translate(4 165.5)">
<title>Vae 3D Architecture</title>
<polygon fill="white" stroke="none" points="-4,4 -4,-165.5 2509.75,-165.5 2509.75,4 -4,4"/>
<g id="clust1" class="cluster">
<title>cluster_2</title>
<polygon fill="none" stroke="black" stroke-dasharray="5,2" points="79.25,-43.75 79.25,-117.75 168,-117.75 168,-43.75 79.25,-43.75"/>
<text xml:space="preserve" text-anchor="middle" x="123.62" y="-102.35" font-family="Times,serif" font-size="12.00">Convolution</text>
</g>
<g id="clust2" class="cluster">
<title>cluster_3</title>
<polygon fill="none" stroke="black" stroke-dasharray="5,2" points="176,-43.75 176,-117.75 319,-117.75 319,-43.75 176,-43.75"/>
<text xml:space="preserve" text-anchor="middle" x="215.88" y="-102.35" font-family="Times,serif" font-size="12.00">Sequential</text>
</g>
<g id="clust3" class="cluster">
<title>cluster_4</title>
<polygon fill="none" stroke="black" stroke-dasharray="5,2" points="327,-43.75 327,-117.75 484.5,-117.75 484.5,-43.75 327,-43.75"/>
<text xml:space="preserve" text-anchor="middle" x="366.88" y="-102.35" font-family="Times,serif" font-size="12.00">Sequential</text>
</g>
<g id="clust4" class="cluster">
<title>cluster_5</title>
<polygon fill="none" stroke="black" stroke-dasharray="5,2" points="492.5,-43.75 492.5,-117.75 723,-117.75 723,-43.75 492.5,-43.75"/>
<text xml:space="preserve" text-anchor="middle" x="532.38" y="-102.35" font-family="Times,serif" font-size="12.00">Sequential</text>
</g>
<g id="clust5" class="cluster">
<title>cluster_6</title>
<polygon fill="none" stroke="black" stroke-dasharray="5,2" points="731,-43.75 731,-117.75 1142,-117.75 1142,-43.75 731,-43.75"/>
<text xml:space="preserve" text-anchor="middle" x="770.88" y="-102.35" font-family="Times,serif" font-size="12.00">Sequential</text>
</g>
<g id="clust6" class="cluster">
<title>cluster_7</title>
<polygon fill="none" stroke="black" stroke-dasharray="5,2" points="1158,-43.75 1158,-117.75 1246.75,-117.75 1246.75,-43.75 1158,-43.75"/>
<text xml:space="preserve" text-anchor="middle" x="1202.38" y="-102.35" font-family="Times,serif" font-size="12.00">Convolution</text>
</g>
<g id="clust7" class="cluster">
<title>cluster_8</title>
<polygon fill="none" stroke="black" stroke-dasharray="5,2" points="1254.75,-43.75 1254.75,-117.75 1411.25,-117.75 1411.25,-43.75 1254.75,-43.75"/>
<text xml:space="preserve" text-anchor="middle" x="1294.62" y="-102.35" font-family="Times,serif" font-size="12.00">Sequential</text>
</g>
<g id="clust8" class="cluster">
<title>cluster_9</title>
<polygon fill="none" stroke="black" stroke-dasharray="5,2" points="1419.25,-43.75 1419.25,-117.75 1738.25,-117.75 1738.25,-43.75 1419.25,-43.75"/>
<text xml:space="preserve" text-anchor="middle" x="1459.12" y="-102.35" font-family="Times,serif" font-size="12.00">Sequential</text>
</g>
<g id="clust9" class="cluster">
<title>cluster_10</title>
<polygon fill="none" stroke="black" stroke-dasharray="5,2" points="1746.25,-43.75 1746.25,-117.75 1909,-117.75 1909,-43.75 1746.25,-43.75"/>
<text xml:space="preserve" text-anchor="middle" x="1786.12" y="-102.35" font-family="Times,serif" font-size="12.00">Sequential</text>
</g>
<g id="clust10" class="cluster">
<title>cluster_11</title>
<polygon fill="none" stroke="black" stroke-dasharray="5,2" points="1917,-43.75 1917,-117.75 1996.75,-117.75 1996.75,-43.75 1917,-43.75"/>
<text xml:space="preserve" text-anchor="middle" x="1956.88" y="-102.35" font-family="Times,serif" font-size="12.00">Sequential</text>
</g>
<g id="clust11" class="cluster">
<title>cluster_12</title>
<polygon fill="none" stroke="black" stroke-dasharray="5,2" points="2004.75,-43.75 2004.75,-117.75 2167.5,-117.75 2167.5,-43.75 2004.75,-43.75"/>
<text xml:space="preserve" text-anchor="middle" x="2044.62" y="-102.35" font-family="Times,serif" font-size="12.00">Sequential</text>
</g>
<g id="clust12" class="cluster">
<title>cluster_13</title>
<polygon fill="none" stroke="black" stroke-dasharray="5,2" points="2175.5,-43.75 2175.5,-117.75 2255.25,-117.75 2255.25,-43.75 2175.5,-43.75"/>
<text xml:space="preserve" text-anchor="middle" x="2215.38" y="-102.35" font-family="Times,serif" font-size="12.00">Sequential</text>
</g>
<g id="clust13" class="cluster">
<title>cluster_14</title>
<polygon fill="none" stroke="black" stroke-dasharray="5,2" points="2263.25,-43.75 2263.25,-117.75 2347.75,-117.75 2347.75,-43.75 2263.25,-43.75"/>
<text xml:space="preserve" text-anchor="middle" x="2303.12" y="-102.35" font-family="Times,serif" font-size="12.00">Sequential</text>
</g>
<!-- 0 -->
<g id="node1" class="node">
<title>0</title>
<polygon fill="lightyellow" stroke="none" points="69.25,-87.5 0,-87.5 0,-52 69.25,-52 69.25,-87.5"/>
<polygon fill="none" stroke="black" points="0,-52 0,-87.5 69.25,-87.5 69.25,-52 0,-52"/>
<text xml:space="preserve" text-anchor="start" x="5" y="-73" font-family="Linux libertine" font-size="10.00">input&#45;tensor</text>
<text xml:space="preserve" text-anchor="start" x="16.25" y="-60.25" font-family="Linux libertine" font-size="10.00">depth:0</text>
</g>
<!-- 1 -->
<g id="node2" class="node">
<title>1</title>
<polygon fill="#c1ffc1" stroke="none" points="150.12,-87.5 96.12,-87.5 96.12,-52 150.12,-52 150.12,-87.5"/>
<polygon fill="none" stroke="black" points="99.75,-52 99.75,-87.5 146.5,-87.5 146.5,-52 99.75,-52"/>
<text xml:space="preserve" text-anchor="start" x="104.75" y="-73" font-family="Linux libertine" font-size="10.00">Conv3d</text>
<text xml:space="preserve" text-anchor="start" x="104.75" y="-60.25" font-family="Linux libertine" font-size="10.00">depth:2</text>
</g>
<!-- 0&#45;&gt;1 -->
<g id="edge1" class="edge">
<title>0&#45;&gt;1</title>
<path fill="none" stroke="black" d="M68.82,-69.75C74.05,-69.75 79.5,-69.75 84.81,-69.75"/>
<polygon fill="black" stroke="black" points="84.62,-73.25 94.62,-69.75 84.62,-66.25 84.62,-73.25"/>
</g>
<!-- 2 -->
<g id="node3" class="node">
<title>2</title>
<polygon fill="#c1ffc1" stroke="none" points="238,-87.5 184,-87.5 184,-52 238,-52 238,-87.5"/>
<polygon fill="none" stroke="black" points="187.25,-52 187.25,-87.5 234.75,-87.5 234.75,-52 187.25,-52"/>
<text xml:space="preserve" text-anchor="start" x="192.25" y="-73" font-family="Linux libertine" font-size="10.00">Identity</text>
<text xml:space="preserve" text-anchor="start" x="192.62" y="-60.25" font-family="Linux libertine" font-size="10.00">depth:2</text>
</g>
<!-- 1&#45;&gt;2 -->
<g id="edge2" class="edge">
<title>1&#45;&gt;2</title>
<path fill="none" stroke="black" d="M149.89,-69.75C157.11,-69.75 165.1,-69.75 172.84,-69.75"/>
<polygon fill="black" stroke="black" points="172.74,-73.25 182.74,-69.75 172.74,-66.25 172.74,-73.25"/>
</g>
<!-- 3 -->
<g id="node4" class="node">
<title>3</title>
<polygon fill="#c1ffc1" stroke="none" points="311,-87.5 256,-87.5 256,-52 311,-52 311,-87.5"/>
<polygon fill="none" stroke="black" points="256,-52 256,-87.5 311,-87.5 311,-52 256,-52"/>
<text xml:space="preserve" text-anchor="start" x="261" y="-73" font-family="Linux libertine" font-size="10.00">ResBlock</text>
<text xml:space="preserve" text-anchor="start" x="265.12" y="-60.25" font-family="Linux libertine" font-size="10.00">depth:2</text>
</g>
<!-- 2&#45;&gt;3 -->
<g id="edge3" class="edge">
<title>2&#45;&gt;3</title>
<path fill="none" stroke="black" d="M237.85,-69.75C240.09,-69.75 242.39,-69.75 244.7,-69.75"/>
<polygon fill="black" stroke="black" points="244.67,-73.25 254.67,-69.75 244.67,-66.25 244.67,-73.25"/>
</g>
<!-- 4 -->
<g id="node5" class="node">
<title>4</title>
<polygon fill="#c1ffc1" stroke="none" points="403.5,-87.5 335,-87.5 335,-52 403.5,-52 403.5,-87.5"/>
<polygon fill="none" stroke="black" points="335,-52 335,-87.5 403.5,-87.5 403.5,-52 335,-52"/>
<text xml:space="preserve" text-anchor="start" x="340" y="-73" font-family="Linux libertine" font-size="10.00">Convolution</text>
<text xml:space="preserve" text-anchor="start" x="350.88" y="-60.25" font-family="Linux libertine" font-size="10.00">depth:2</text>
</g>
<!-- 3&#45;&gt;4 -->
<g id="edge4" class="edge">
<title>3&#45;&gt;4</title>
<path fill="none" stroke="black" d="M311,-69.75C315.07,-69.75 319.37,-69.75 323.71,-69.75"/>
<polygon fill="black" stroke="black" points="323.64,-73.25 333.64,-69.75 323.64,-66.25 323.64,-73.25"/>
</g>
<!-- 5 -->
<g id="node6" class="node">
<title>5</title>
<polygon fill="#c1ffc1" stroke="none" points="476.5,-87.5 421.5,-87.5 421.5,-52 476.5,-52 476.5,-87.5"/>
<polygon fill="none" stroke="black" points="421.5,-52 421.5,-87.5 476.5,-87.5 476.5,-52 421.5,-52"/>
<text xml:space="preserve" text-anchor="start" x="426.5" y="-73" font-family="Linux libertine" font-size="10.00">ResBlock</text>
<text xml:space="preserve" text-anchor="start" x="430.62" y="-60.25" font-family="Linux libertine" font-size="10.00">depth:2</text>
</g>
<!-- 4&#45;&gt;5 -->
<g id="edge5" class="edge">
<title>4&#45;&gt;5</title>
<path fill="none" stroke="black" d="M403.22,-69.75C405.52,-69.75 407.85,-69.75 410.17,-69.75"/>
<polygon fill="black" stroke="black" points="410.06,-73.25 420.06,-69.75 410.06,-66.25 410.06,-73.25"/>
</g>
<!-- 6 -->
<g id="node7" class="node">
<title>6</title>
<polygon fill="#c1ffc1" stroke="none" points="569,-87.5 500.5,-87.5 500.5,-52 569,-52 569,-87.5"/>
<polygon fill="none" stroke="black" points="500.5,-52 500.5,-87.5 569,-87.5 569,-52 500.5,-52"/>
<text xml:space="preserve" text-anchor="start" x="505.5" y="-73" font-family="Linux libertine" font-size="10.00">Convolution</text>
<text xml:space="preserve" text-anchor="start" x="516.38" y="-60.25" font-family="Linux libertine" font-size="10.00">depth:2</text>
</g>
<!-- 5&#45;&gt;6 -->
<g id="edge6" class="edge">
<title>5&#45;&gt;6</title>
<path fill="none" stroke="black" d="M476.5,-69.75C480.57,-69.75 484.87,-69.75 489.21,-69.75"/>
<polygon fill="black" stroke="black" points="489.14,-73.25 499.14,-69.75 489.14,-66.25 489.14,-73.25"/>
</g>
<!-- 7 -->
<g id="node8" class="node">
<title>7</title>
<polygon fill="#c1ffc1" stroke="none" points="642,-87.5 587,-87.5 587,-52 642,-52 642,-87.5"/>
<polygon fill="none" stroke="black" points="587,-52 587,-87.5 642,-87.5 642,-52 587,-52"/>
<text xml:space="preserve" text-anchor="start" x="592" y="-73" font-family="Linux libertine" font-size="10.00">ResBlock</text>
<text xml:space="preserve" text-anchor="start" x="596.12" y="-60.25" font-family="Linux libertine" font-size="10.00">depth:2</text>
</g>
<!-- 6&#45;&gt;7 -->
<g id="edge7" class="edge">
<title>6&#45;&gt;7</title>
<path fill="none" stroke="black" d="M568.72,-69.75C571.02,-69.75 573.35,-69.75 575.67,-69.75"/>
<polygon fill="black" stroke="black" points="575.56,-73.25 585.56,-69.75 575.56,-66.25 575.56,-73.25"/>
</g>
<!-- 8 -->
<g id="node9" class="node">
<title>8</title>
<polygon fill="#c1ffc1" stroke="none" points="715,-87.5 660,-87.5 660,-52 715,-52 715,-87.5"/>
<polygon fill="none" stroke="black" points="660,-52 660,-87.5 715,-87.5 715,-52 660,-52"/>
<text xml:space="preserve" text-anchor="start" x="665" y="-73" font-family="Linux libertine" font-size="10.00">ResBlock</text>
<text xml:space="preserve" text-anchor="start" x="669.12" y="-60.25" font-family="Linux libertine" font-size="10.00">depth:2</text>
</g>
<!-- 7&#45;&gt;8 -->
<g id="edge8" class="edge">
<title>7&#45;&gt;8</title>
<path fill="none" stroke="black" d="M641.94,-69.75C644.19,-69.75 646.48,-69.75 648.8,-69.75"/>
<polygon fill="black" stroke="black" points="648.76,-73.25 658.76,-69.75 648.76,-66.25 648.76,-73.25"/>
</g>
<!-- 9 -->
<g id="node10" class="node">
<title>9</title>
<polygon fill="#c1ffc1" stroke="none" points="805.25,-87.5 739,-87.5 739,-52 805.25,-52 805.25,-87.5"/>
<polygon fill="none" stroke="black" points="739,-52 739,-87.5 805.25,-87.5 805.25,-52 739,-52"/>
<text xml:space="preserve" text-anchor="start" x="744" y="-73" font-family="Linux libertine" font-size="10.00">GroupNorm</text>
<text xml:space="preserve" text-anchor="start" x="753.75" y="-60.25" font-family="Linux libertine" font-size="10.00">depth:2</text>
</g>
<!-- 8&#45;&gt;9 -->
<g id="edge9" class="edge">
<title>8&#45;&gt;9</title>
<path fill="none" stroke="black" d="M714.64,-69.75C718.88,-69.75 723.37,-69.75 727.89,-69.75"/>
<polygon fill="black" stroke="black" points="727.55,-73.25 737.55,-69.75 727.55,-66.25 727.55,-73.25"/>
</g>
<!-- 10 -->
<g id="node11" class="node">
<title>10</title>
<polygon fill="#c1ffc1" stroke="none" points="877.25,-87.5 823.25,-87.5 823.25,-52 877.25,-52 877.25,-87.5"/>
<polygon fill="none" stroke="black" points="826.88,-52 826.88,-87.5 873.62,-87.5 873.62,-52 826.88,-52"/>
<text xml:space="preserve" text-anchor="start" x="837.12" y="-73" font-family="Linux libertine" font-size="10.00">GELU</text>
<text xml:space="preserve" text-anchor="start" x="831.88" y="-60.25" font-family="Linux libertine" font-size="10.00">depth:2</text>
</g>
<!-- 9&#45;&gt;10 -->
<g id="edge10" class="edge">
<title>9&#45;&gt;10</title>
<path fill="none" stroke="black" d="M804.97,-69.75C807.39,-69.75 809.84,-69.75 812.29,-69.75"/>
<polygon fill="black" stroke="black" points="812.03,-73.25 822.03,-69.75 812.03,-66.25 812.03,-73.25"/>
</g>
<!-- 11 -->
<g id="node12" class="node">
<title>11</title>
<polygon fill="#c1ffc1" stroke="none" points="963.75,-87.5 895.25,-87.5 895.25,-52 963.75,-52 963.75,-87.5"/>
<polygon fill="none" stroke="black" points="895.25,-52 895.25,-87.5 963.75,-87.5 963.75,-52 895.25,-52"/>
<text xml:space="preserve" text-anchor="start" x="900.25" y="-73" font-family="Linux libertine" font-size="10.00">Convolution</text>
<text xml:space="preserve" text-anchor="start" x="911.12" y="-60.25" font-family="Linux libertine" font-size="10.00">depth:2</text>
</g>
<!-- 10&#45;&gt;11 -->
<g id="edge11" class="edge">
<title>10&#45;&gt;11</title>
<path fill="none" stroke="black" d="M876.97,-69.75C879.27,-69.75 881.64,-69.75 884.03,-69.75"/>
<polygon fill="black" stroke="black" points="883.82,-73.25 893.82,-69.75 883.82,-66.25 883.82,-73.25"/>
</g>
<!-- 12 -->
<g id="node13" class="node">
<title>12</title>
<polygon fill="#c1ffc1" stroke="none" points="1048,-87.5 981.75,-87.5 981.75,-52 1048,-52 1048,-87.5"/>
<polygon fill="none" stroke="black" points="981.75,-52 981.75,-87.5 1048,-87.5 1048,-52 981.75,-52"/>
<text xml:space="preserve" text-anchor="start" x="986.75" y="-73" font-family="Linux libertine" font-size="10.00">GroupNorm</text>
<text xml:space="preserve" text-anchor="start" x="996.5" y="-60.25" font-family="Linux libertine" font-size="10.00">depth:2</text>
</g>
<!-- 11&#45;&gt;12 -->
<g id="edge12" class="edge">
<title>11&#45;&gt;12</title>
<path fill="none" stroke="black" d="M963.45,-69.75C965.83,-69.75 968.26,-69.75 970.69,-69.75"/>
<polygon fill="black" stroke="black" points="970.47,-73.25 980.47,-69.75 970.47,-66.25 970.47,-73.25"/>
</g>
<!-- 13 -->
<g id="node14" class="node">
<title>13</title>
<polygon fill="#c1ffc1" stroke="none" points="1134,-87.5 1080,-87.5 1080,-52 1134,-52 1134,-87.5"/>
<polygon fill="none" stroke="black" points="1083.62,-52 1083.62,-87.5 1130.38,-87.5 1130.38,-52 1083.62,-52"/>
<text xml:space="preserve" text-anchor="start" x="1093.88" y="-73" font-family="Linux libertine" font-size="10.00">GELU</text>
<text xml:space="preserve" text-anchor="start" x="1088.62" y="-60.25" font-family="Linux libertine" font-size="10.00">depth:2</text>
</g>
<!-- 12&#45;&gt;13 -->
<g id="edge13" class="edge">
<title>12&#45;&gt;13</title>
<path fill="none" stroke="black" d="M1047.9,-69.75C1054.65,-69.75 1061.81,-69.75 1068.73,-69.75"/>
<polygon fill="black" stroke="black" points="1068.49,-73.25 1078.49,-69.75 1068.49,-66.25 1068.49,-73.25"/>
</g>
<!-- 14 -->
<g id="node15" class="node">
<title>14</title>
<polygon fill="#c1ffc1" stroke="none" points="1228.88,-87.5 1174.88,-87.5 1174.88,-52 1228.88,-52 1228.88,-87.5"/>
<polygon fill="none" stroke="black" points="1178.5,-52 1178.5,-87.5 1225.25,-87.5 1225.25,-52 1178.5,-52"/>
<text xml:space="preserve" text-anchor="start" x="1183.5" y="-73" font-family="Linux libertine" font-size="10.00">Conv3d</text>
<text xml:space="preserve" text-anchor="start" x="1183.5" y="-60.25" font-family="Linux libertine" font-size="10.00">depth:2</text>
</g>
<!-- 13&#45;&gt;14 -->
<g id="edge14" class="edge">
<title>13&#45;&gt;14</title>
<path fill="none" stroke="black" d="M1133.87,-69.75C1143.13,-69.75 1153.76,-69.75 1163.78,-69.75"/>
<polygon fill="black" stroke="black" points="1163.63,-73.25 1173.63,-69.75 1163.63,-66.25 1163.63,-73.25"/>
</g>
<!-- 15 -->
<g id="node16" class="node">
<title>15</title>
<polygon fill="aliceblue" stroke="none" points="1327.12,-161.5 1266.88,-161.5 1266.88,-126 1327.12,-126 1327.12,-161.5"/>
<polygon fill="none" stroke="black" points="1266.88,-126 1266.88,-161.5 1327.12,-161.5 1327.12,-126 1266.88,-126"/>
<text xml:space="preserve" text-anchor="start" x="1271.88" y="-147" font-family="Linux libertine" font-size="10.00">randn_like</text>
<text xml:space="preserve" text-anchor="start" x="1278.62" y="-134.25" font-family="Linux libertine" font-size="10.00">depth:1</text>
</g>
<!-- 14&#45;&gt;15 -->
<g id="edge15" class="edge">
<title>14&#45;&gt;15</title>
<path fill="none" stroke="black" d="M1218.78,-87.04C1228.6,-97.21 1241.78,-109.95 1254.75,-119.75 1255.71,-120.47 1256.69,-121.19 1257.69,-121.91"/>
<polygon fill="black" stroke="black" points="1255.49,-124.65 1265.76,-127.25 1259.36,-118.81 1255.49,-124.65"/>
</g>
<!-- 18 -->
<g id="node19" class="node">
<title>18</title>
<polygon fill="aliceblue" stroke="none" points="1324,-35.5 1270,-35.5 1270,0 1324,0 1324,-35.5"/>
<polygon fill="none" stroke="black" points="1273.62,0 1273.62,-35.5 1320.38,-35.5 1320.38,0 1273.62,0"/>
<text xml:space="preserve" text-anchor="start" x="1288" y="-21" font-family="Linux libertine" font-size="10.00">add</text>
<text xml:space="preserve" text-anchor="start" x="1278.62" y="-8.25" font-family="Linux libertine" font-size="10.00">depth:1</text>
</g>
<!-- 14&#45;&gt;18 -->
<g id="edge16" class="edge">
<title>14&#45;&gt;18</title>
<path fill="none" stroke="black" d="M1228.82,-55.27C1238.6,-49.8 1249.92,-43.48 1260.43,-37.61"/>
<polygon fill="black" stroke="black" points="1261.85,-40.83 1268.88,-32.9 1258.44,-34.71 1261.85,-40.83"/>
</g>
<!-- 19 -->
<g id="node20" class="node">
<title>19</title>
<polygon fill="#c1ffc1" stroke="none" points="1331.25,-87.5 1262.75,-87.5 1262.75,-52 1331.25,-52 1331.25,-87.5"/>
<polygon fill="none" stroke="black" points="1262.75,-52 1262.75,-87.5 1331.25,-87.5 1331.25,-52 1262.75,-52"/>
<text xml:space="preserve" text-anchor="start" x="1267.75" y="-73" font-family="Linux libertine" font-size="10.00">Convolution</text>
<text xml:space="preserve" text-anchor="start" x="1278.62" y="-60.25" font-family="Linux libertine" font-size="10.00">depth:2</text>
</g>
<!-- 14&#45;&gt;19 -->
<g id="edge19" class="edge">
<title>14&#45;&gt;19</title>
<path fill="none" stroke="black" d="M1228.82,-69.75C1235.9,-69.75 1243.79,-69.75 1251.59,-69.75"/>
<polygon fill="black" stroke="black" points="1251.35,-73.25 1261.35,-69.75 1251.35,-66.25 1251.35,-73.25"/>
</g>
<!-- 16 -->
<g id="node17" class="node">
<title>16</title>
<polygon fill="aliceblue" stroke="none" points="1148,-35.5 1066,-35.5 1066,0 1148,0 1148,-35.5"/>
<polygon fill="none" stroke="black" points="1066,0 1066,-35.5 1148,-35.5 1148,0 1066,0"/>
<text xml:space="preserve" text-anchor="start" x="1071" y="-21" font-family="Linux libertine" font-size="10.00">requires_grad_</text>
<text xml:space="preserve" text-anchor="start" x="1088.62" y="-8.25" font-family="Linux libertine" font-size="10.00">depth:1</text>
</g>
<!-- 17 -->
<g id="node18" class="node">
<title>17</title>
<polygon fill="aliceblue" stroke="none" points="1228.88,-35.5 1174.88,-35.5 1174.88,0 1228.88,0 1228.88,-35.5"/>
<polygon fill="none" stroke="black" points="1178.5,0 1178.5,-35.5 1225.25,-35.5 1225.25,0 1178.5,0"/>
<text xml:space="preserve" text-anchor="start" x="1192.5" y="-21" font-family="Linux libertine" font-size="10.00">mul</text>
<text xml:space="preserve" text-anchor="start" x="1183.5" y="-8.25" font-family="Linux libertine" font-size="10.00">depth:1</text>
</g>
<!-- 16&#45;&gt;17 -->
<g id="edge17" class="edge">
<title>16&#45;&gt;17</title>
<path fill="none" stroke="black" d="M1147.93,-17.75C1153.07,-17.75 1158.32,-17.75 1163.42,-17.75"/>
<polygon fill="black" stroke="black" points="1163.42,-21.25 1173.42,-17.75 1163.42,-14.25 1163.42,-21.25"/>
</g>
<!-- 17&#45;&gt;18 -->
<g id="edge18" class="edge">
<title>17&#45;&gt;18</title>
<path fill="none" stroke="black" d="M1228.82,-17.75C1238.1,-17.75 1248.75,-17.75 1258.8,-17.75"/>
<polygon fill="black" stroke="black" points="1258.69,-21.25 1268.69,-17.75 1258.69,-14.25 1258.69,-21.25"/>
</g>
<!-- 20 -->
<g id="node21" class="node">
<title>20</title>
<polygon fill="#c1ffc1" stroke="none" points="1403.25,-87.5 1349.25,-87.5 1349.25,-52 1403.25,-52 1403.25,-87.5"/>
<polygon fill="none" stroke="black" points="1352.88,-52 1352.88,-87.5 1399.62,-87.5 1399.62,-52 1352.88,-52"/>
<text xml:space="preserve" text-anchor="start" x="1363.12" y="-73" font-family="Linux libertine" font-size="10.00">GELU</text>
<text xml:space="preserve" text-anchor="start" x="1357.88" y="-60.25" font-family="Linux libertine" font-size="10.00">depth:2</text>
</g>
<!-- 19&#45;&gt;20 -->
<g id="edge20" class="edge">
<title>19&#45;&gt;20</title>
<path fill="none" stroke="black" d="M1331.21,-69.75C1333.48,-69.75 1335.77,-69.75 1338.06,-69.75"/>
<polygon fill="black" stroke="black" points="1337.79,-73.25 1347.78,-69.75 1337.78,-66.25 1337.79,-73.25"/>
</g>
<!-- 21 -->
<g id="node22" class="node">
<title>21</title>
<polygon fill="#c1ffc1" stroke="none" points="1495.75,-87.5 1427.25,-87.5 1427.25,-52 1495.75,-52 1495.75,-87.5"/>
<polygon fill="none" stroke="black" points="1427.25,-52 1427.25,-87.5 1495.75,-87.5 1495.75,-52 1427.25,-52"/>
<text xml:space="preserve" text-anchor="start" x="1432.25" y="-73" font-family="Linux libertine" font-size="10.00">Convolution</text>
<text xml:space="preserve" text-anchor="start" x="1443.12" y="-60.25" font-family="Linux libertine" font-size="10.00">depth:2</text>
</g>
<!-- 20&#45;&gt;21 -->
<g id="edge21" class="edge">
<title>20&#45;&gt;21</title>
<path fill="none" stroke="black" d="M1403.13,-69.75C1407.19,-69.75 1411.48,-69.75 1415.82,-69.75"/>
<polygon fill="black" stroke="black" points="1415.75,-73.25 1425.75,-69.75 1415.75,-66.25 1415.75,-73.25"/>
</g>
<!-- 22 -->
<g id="node23" class="node">
<title>22</title>
<polygon fill="#c1ffc1" stroke="none" points="1574,-87.5 1513.75,-87.5 1513.75,-52 1574,-52 1574,-87.5"/>
<polygon fill="none" stroke="black" points="1513.75,-52 1513.75,-87.5 1574,-87.5 1574,-52 1513.75,-52"/>
<text xml:space="preserve" text-anchor="start" x="1518.75" y="-73" font-family="Linux libertine" font-size="10.00">UpSample</text>
<text xml:space="preserve" text-anchor="start" x="1525.5" y="-60.25" font-family="Linux libertine" font-size="10.00">depth:2</text>
</g>
<!-- 21&#45;&gt;22 -->
<g id="edge22" class="edge">
<title>21&#45;&gt;22</title>
<path fill="none" stroke="black" d="M1495.66,-69.75C1497.93,-69.75 1500.23,-69.75 1502.53,-69.75"/>
<polygon fill="black" stroke="black" points="1502.39,-73.25 1512.39,-69.75 1502.39,-66.25 1502.39,-73.25"/>
</g>
<!-- 23 -->
<g id="node24" class="node">
<title>23</title>
<polygon fill="#c1ffc1" stroke="none" points="1658.25,-87.5 1592,-87.5 1592,-52 1658.25,-52 1658.25,-87.5"/>
<polygon fill="none" stroke="black" points="1592,-52 1592,-87.5 1658.25,-87.5 1658.25,-52 1592,-52"/>
<text xml:space="preserve" text-anchor="start" x="1597" y="-73" font-family="Linux libertine" font-size="10.00">GroupNorm</text>
<text xml:space="preserve" text-anchor="start" x="1606.75" y="-60.25" font-family="Linux libertine" font-size="10.00">depth:2</text>
</g>
<!-- 22&#45;&gt;23 -->
<g id="edge23" class="edge">
<title>22&#45;&gt;23</title>
<path fill="none" stroke="black" d="M1573.93,-69.75C1576.15,-69.75 1578.42,-69.75 1580.71,-69.75"/>
<polygon fill="black" stroke="black" points="1580.61,-73.25 1590.61,-69.75 1580.61,-66.25 1580.61,-73.25"/>
</g>
<!-- 24 -->
<g id="node25" class="node">
<title>24</title>
<polygon fill="#c1ffc1" stroke="none" points="1730.25,-87.5 1676.25,-87.5 1676.25,-52 1730.25,-52 1730.25,-87.5"/>
<polygon fill="none" stroke="black" points="1679.88,-52 1679.88,-87.5 1726.62,-87.5 1726.62,-52 1679.88,-52"/>
<text xml:space="preserve" text-anchor="start" x="1690.12" y="-73" font-family="Linux libertine" font-size="10.00">GELU</text>
<text xml:space="preserve" text-anchor="start" x="1684.88" y="-60.25" font-family="Linux libertine" font-size="10.00">depth:2</text>
</g>
<!-- 23&#45;&gt;24 -->
<g id="edge24" class="edge">
<title>23&#45;&gt;24</title>
<path fill="none" stroke="black" d="M1657.97,-69.75C1660.39,-69.75 1662.84,-69.75 1665.29,-69.75"/>
<polygon fill="black" stroke="black" points="1665.03,-73.25 1675.03,-69.75 1665.03,-66.25 1665.03,-73.25"/>
</g>
<!-- 25 -->
<g id="node26" class="node">
<title>25</title>
<polygon fill="#c1ffc1" stroke="none" points="1822.75,-87.5 1754.25,-87.5 1754.25,-52 1822.75,-52 1822.75,-87.5"/>
<polygon fill="none" stroke="black" points="1754.25,-52 1754.25,-87.5 1822.75,-87.5 1822.75,-52 1754.25,-52"/>
<text xml:space="preserve" text-anchor="start" x="1759.25" y="-73" font-family="Linux libertine" font-size="10.00">Convolution</text>
<text xml:space="preserve" text-anchor="start" x="1770.12" y="-60.25" font-family="Linux libertine" font-size="10.00">depth:2</text>
</g>
<!-- 24&#45;&gt;25 -->
<g id="edge25" class="edge">
<title>24&#45;&gt;25</title>
<path fill="none" stroke="black" d="M1730.13,-69.75C1734.19,-69.75 1738.48,-69.75 1742.82,-69.75"/>
<polygon fill="black" stroke="black" points="1742.75,-73.25 1752.75,-69.75 1742.75,-66.25 1742.75,-73.25"/>
</g>
<!-- 26 -->
<g id="node27" class="node">
<title>26</title>
<polygon fill="#c1ffc1" stroke="none" points="1901,-87.5 1840.75,-87.5 1840.75,-52 1901,-52 1901,-87.5"/>
<polygon fill="none" stroke="black" points="1840.75,-52 1840.75,-87.5 1901,-87.5 1901,-52 1840.75,-52"/>
<text xml:space="preserve" text-anchor="start" x="1845.75" y="-73" font-family="Linux libertine" font-size="10.00">UpSample</text>
<text xml:space="preserve" text-anchor="start" x="1852.5" y="-60.25" font-family="Linux libertine" font-size="10.00">depth:2</text>
</g>
<!-- 25&#45;&gt;26 -->
<g id="edge26" class="edge">
<title>25&#45;&gt;26</title>
<path fill="none" stroke="black" d="M1822.66,-69.75C1824.93,-69.75 1827.23,-69.75 1829.53,-69.75"/>
<polygon fill="black" stroke="black" points="1829.39,-73.25 1839.39,-69.75 1829.39,-66.25 1829.39,-73.25"/>
</g>
<!-- 27 -->
<g id="node28" class="node">
<title>27</title>
<polygon fill="#c1ffc1" stroke="none" points="1983.88,-87.5 1928.88,-87.5 1928.88,-52 1983.88,-52 1983.88,-87.5"/>
<polygon fill="none" stroke="black" points="1928.88,-52 1928.88,-87.5 1983.88,-87.5 1983.88,-52 1928.88,-52"/>
<text xml:space="preserve" text-anchor="start" x="1933.88" y="-73" font-family="Linux libertine" font-size="10.00">ResBlock</text>
<text xml:space="preserve" text-anchor="start" x="1938" y="-60.25" font-family="Linux libertine" font-size="10.00">depth:2</text>
</g>
<!-- 26&#45;&gt;27 -->
<g id="edge27" class="edge">
<title>26&#45;&gt;27</title>
<path fill="none" stroke="black" d="M1900.61,-69.75C1906.1,-69.75 1911.92,-69.75 1917.65,-69.75"/>
<polygon fill="black" stroke="black" points="1917.6,-73.25 1927.6,-69.75 1917.6,-66.25 1917.6,-73.25"/>
</g>
<!-- 28 -->
<g id="node29" class="node">
<title>28</title>
<polygon fill="#c1ffc1" stroke="none" points="2081.25,-87.5 2012.75,-87.5 2012.75,-52 2081.25,-52 2081.25,-87.5"/>
<polygon fill="none" stroke="black" points="2012.75,-52 2012.75,-87.5 2081.25,-87.5 2081.25,-52 2012.75,-52"/>
<text xml:space="preserve" text-anchor="start" x="2017.75" y="-73" font-family="Linux libertine" font-size="10.00">Convolution</text>
<text xml:space="preserve" text-anchor="start" x="2028.62" y="-60.25" font-family="Linux libertine" font-size="10.00">depth:2</text>
</g>
<!-- 27&#45;&gt;28 -->
<g id="edge28" class="edge">
<title>27&#45;&gt;28</title>
<path fill="none" stroke="black" d="M1983.49,-69.75C1989.23,-69.75 1995.47,-69.75 2001.71,-69.75"/>
<polygon fill="black" stroke="black" points="2001.31,-73.25 2011.31,-69.75 2001.31,-66.25 2001.31,-73.25"/>
</g>
<!-- 29 -->
<g id="node30" class="node">
<title>29</title>
<polygon fill="#c1ffc1" stroke="none" points="2159.5,-87.5 2099.25,-87.5 2099.25,-52 2159.5,-52 2159.5,-87.5"/>
<polygon fill="none" stroke="black" points="2099.25,-52 2099.25,-87.5 2159.5,-87.5 2159.5,-52 2099.25,-52"/>
<text xml:space="preserve" text-anchor="start" x="2104.25" y="-73" font-family="Linux libertine" font-size="10.00">UpSample</text>
<text xml:space="preserve" text-anchor="start" x="2111" y="-60.25" font-family="Linux libertine" font-size="10.00">depth:2</text>
</g>
<!-- 28&#45;&gt;29 -->
<g id="edge29" class="edge">
<title>28&#45;&gt;29</title>
<path fill="none" stroke="black" d="M2081.16,-69.75C2083.43,-69.75 2085.73,-69.75 2088.03,-69.75"/>
<polygon fill="black" stroke="black" points="2087.89,-73.25 2097.89,-69.75 2087.89,-66.25 2087.89,-73.25"/>
</g>
<!-- 30 -->
<g id="node31" class="node">
<title>30</title>
<polygon fill="#c1ffc1" stroke="none" points="2242.38,-87.5 2187.38,-87.5 2187.38,-52 2242.38,-52 2242.38,-87.5"/>
<polygon fill="none" stroke="black" points="2187.38,-52 2187.38,-87.5 2242.38,-87.5 2242.38,-52 2187.38,-52"/>
<text xml:space="preserve" text-anchor="start" x="2192.38" y="-73" font-family="Linux libertine" font-size="10.00">ResBlock</text>
<text xml:space="preserve" text-anchor="start" x="2196.5" y="-60.25" font-family="Linux libertine" font-size="10.00">depth:2</text>
</g>
<!-- 29&#45;&gt;30 -->
<g id="edge30" class="edge">
<title>29&#45;&gt;30</title>
<path fill="none" stroke="black" d="M2159.11,-69.75C2164.6,-69.75 2170.42,-69.75 2176.15,-69.75"/>
<polygon fill="black" stroke="black" points="2176.1,-73.25 2186.1,-69.75 2176.1,-66.25 2176.1,-73.25"/>
</g>
<!-- 31 -->
<g id="node32" class="node">
<title>31</title>
<polygon fill="#c1ffc1" stroke="none" points="2339.75,-87.5 2271.25,-87.5 2271.25,-52 2339.75,-52 2339.75,-87.5"/>
<polygon fill="none" stroke="black" points="2271.25,-52 2271.25,-87.5 2339.75,-87.5 2339.75,-52 2271.25,-52"/>
<text xml:space="preserve" text-anchor="start" x="2276.25" y="-73" font-family="Linux libertine" font-size="10.00">Convolution</text>
<text xml:space="preserve" text-anchor="start" x="2287.12" y="-60.25" font-family="Linux libertine" font-size="10.00">depth:2</text>
</g>
<!-- 30&#45;&gt;31 -->
<g id="edge31" class="edge">
<title>30&#45;&gt;31</title>
<path fill="none" stroke="black" d="M2241.99,-69.75C2247.73,-69.75 2253.97,-69.75 2260.21,-69.75"/>
<polygon fill="black" stroke="black" points="2259.81,-73.25 2269.81,-69.75 2259.81,-66.25 2259.81,-73.25"/>
</g>
<!-- 32 -->
<g id="node33" class="node">
<title>32</title>
<polygon fill="#c1ffc1" stroke="none" points="2411.75,-87.5 2357.75,-87.5 2357.75,-52 2411.75,-52 2411.75,-87.5"/>
<polygon fill="none" stroke="black" points="2361.38,-52 2361.38,-87.5 2408.12,-87.5 2408.12,-52 2361.38,-52"/>
<text xml:space="preserve" text-anchor="start" x="2373.5" y="-73" font-family="Linux libertine" font-size="10.00">Tanh</text>
<text xml:space="preserve" text-anchor="start" x="2366.38" y="-60.25" font-family="Linux libertine" font-size="10.00">depth:1</text>
</g>
<!-- 31&#45;&gt;32 -->
<g id="edge32" class="edge">
<title>31&#45;&gt;32</title>
<path fill="none" stroke="black" d="M2339.71,-69.75C2341.98,-69.75 2344.27,-69.75 2346.56,-69.75"/>
<polygon fill="black" stroke="black" points="2346.29,-73.25 2356.28,-69.75 2346.28,-66.25 2346.29,-73.25"/>
</g>
<!-- 33 -->
<g id="node34" class="node">
<title>33</title>
<polygon fill="lightyellow" stroke="none" points="2505.75,-87.5 2429.75,-87.5 2429.75,-52 2505.75,-52 2505.75,-87.5"/>
<polygon fill="none" stroke="black" points="2429.75,-52 2429.75,-87.5 2505.75,-87.5 2505.75,-52 2429.75,-52"/>
<text xml:space="preserve" text-anchor="start" x="2434.75" y="-73" font-family="Linux libertine" font-size="10.00">output&#45;tensor</text>
<text xml:space="preserve" text-anchor="start" x="2449.38" y="-60.25" font-family="Linux libertine" font-size="10.00">depth:0</text>
</g>
<!-- 32&#45;&gt;33 -->
<g id="edge33" class="edge">
<title>32&#45;&gt;33</title>
<path fill="none" stroke="black" d="M2411.38,-69.75C2413.79,-69.75 2416.28,-69.75 2418.81,-69.75"/>
<polygon fill="black" stroke="black" points="2418.53,-73.25 2428.53,-69.75 2418.53,-66.25 2418.53,-73.25"/>
</g>
</g>
</svg>
